<?xml version="1.0" standalone="no"?>
<!DOCTYPE svg PUBLIC "-//W3C//DTD SVG 1.1//EN" "http://www.w3.org/Graphics/SVG/1.1/DTD/svg11.dtd" >
<svg xmlns="http://www.w3.org/2000/svg">
<metadata></metadata>
<defs>
<font id="libre_baskervilleitalic" horiz-adv-x="1499" >
<font-face units-per-em="2048" ascent="1638" descent="-410" />
<missing-glyph horiz-adv-x="540" />
<glyph unicode="&#xfb01;" horiz-adv-x="1206" d="M-381 -362q0 49 25.5 78t70.5 29q30 0 48.5 -14.5t27 -34.5t16.5 -40.5t24.5 -35t44.5 -14.5q30 0 57 22t48 60.5t34 89.5l285 1107h-188l25 90h187q86 345 201.5 501t272.5 156q115 0 190.5 -48.5t75.5 -120.5q0 -46 -26 -77t-68 -31t-65.5 19.5t-32 47t-15 55.5 t-25 47.5t-52.5 19.5q-51 0 -102.5 -74t-95 -201t-77.5 -294h174q88 0 181.5 10t111.5 10q32 0 46 -10.5t14 -42.5q0 -44 -41 -181l-132 -431q-31 -115 -31 -150q0 -21 10 -34.5t33 -13.5q27 0 59 23.5t59.5 59t48 66.5t31.5 55l62 -34q-21 -51 -56 -104.5t-81.5 -103.5 t-106.5 -81.5t-120 -31.5q-62 0 -92 35t-30 112q0 49 13 109.5t42 159.5l75 252q31 114 31 154q0 51 -37 66.5t-133 15.5h-152l-185 -741q-34 -133 -67.5 -233.5t-70 -173t-74.5 -120.5t-83 -76.5t-92 -40t-105 -11.5q-81 0 -134.5 42.5t-53.5 106.5z" />
<glyph unicode="&#xfb02;" horiz-adv-x="1212" d="M-381 -360q0 48 26 76.5t70 28.5q30 0 48.5 -14.5t27 -34.5t16.5 -40.5t24 -35t41 -14.5q48 0 85 45.5t58 126.5l285 1107h-188l25 90h187q92 335 216.5 486t309.5 151q96 0 159 -31l204 49l-352 -1292q-32 -110 -32 -156q0 -50 42 -50q21 0 51.5 18.5t62 49.5t63 72.5 t53.5 83.5l59 -33q-69 -148 -182 -245t-215 -97q-59 0 -89.5 33t-30.5 96q0 98 53 287l255 938q10 40 10 65q0 56 -29 90t-80 34q-102 0 -191.5 -141.5t-155.5 -407.5h213l-28 -90h-206l-185 -741q-60 -238 -126.5 -380.5t-150 -208.5t-195.5 -66q-96 0 -152 41t-56 110z " />
<glyph unicode="&#xfb03;" horiz-adv-x="1754" d="M-381 -360q0 48 26 76.5t70 28.5q30 0 48.5 -14.5t27 -34.5t16.5 -40.5t24 -35t41 -14.5q48 0 85 45.5t58 126.5l285 1107h-188l25 90h187q46 161 91 265.5t102.5 171t126 94t162.5 27.5q173 0 267 -64q31 42 63.5 72.5t68 51t74.5 30t83 9.5q108 0 182.5 -49.5 t74.5 -121.5q0 -47 -28.5 -76.5t-72.5 -29.5q-37 0 -59 19.5t-31 47t-16.5 55.5t-23.5 47.5t-45 19.5q-81 0 -154 -146.5t-129 -422.5h129q104 0 208.5 10t122.5 10q21 0 33.5 -4t20 -15.5t7.5 -33.5q0 -44 -41 -181l-133 -431q-30 -111 -30 -150q0 -21 10.5 -34.5 t32.5 -13.5q27 0 59 23.5t59.5 59t48 66.5t32.5 55l60 -34q-21 -51 -56 -104.5t-81.5 -103.5t-106.5 -81.5t-120 -31.5q-61 0 -91.5 35t-30.5 112q0 49 13 109.5t42 159.5l75 252q32 114 32 154q0 21 -7 36t-18.5 24t-34 14t-47.5 6.5t-64 1.5h-146l-183 -741 q-59 -241 -123.5 -382.5t-144.5 -207t-190 -65.5q-90 0 -142 36t-52 98q0 41 24 66.5t62 25.5q24 0 41.5 -11t28 -27t20.5 -32t26 -27.5t38 -11.5q84 0 129 172l283 1107h-371l-185 -741q-60 -238 -126.5 -380.5t-150 -208.5t-195.5 -66q-96 0 -152 41t-56 110zM505 975h373 q51 208 124 374q-29 45 -79 70.5t-109 25.5q-72 0 -123 -43.5t-95 -144t-91 -282.5z" />
<glyph unicode="&#xfb04;" horiz-adv-x="1767" d="M-381 -360q0 48 26 76.5t70 28.5q30 0 48.5 -14.5t27 -34.5t16.5 -40.5t24 -35t41 -14.5q48 0 85 45.5t58 126.5l285 1107h-188l25 90h187q46 161 91 265.5t102.5 171t126 94t162.5 27.5q84 0 159.5 -19.5t126.5 -56.5q43 53 91 87.5t102.5 51t118.5 16.5q96 0 159 -31 l204 49l-351 -1292q-32 -110 -32 -156q0 -50 42 -50t113 69t116 155l60 -33q-69 -148 -182.5 -245t-215.5 -97q-59 0 -89.5 33t-30.5 96q0 95 54 287l255 938q10 40 10 65q0 56 -29.5 90t-81.5 34q-101 0 -190 -141.5t-155 -407.5h212l-28 -90h-206l-185 -741 q-59 -238 -126 -380.5t-150.5 -208.5t-195.5 -66q-87 0 -137.5 35.5t-50.5 96.5q0 47 26 75t70 28q26 0 42 -12t23.5 -29.5t14.5 -34.5t21 -29.5t36 -12.5q48 0 85.5 45.5t58.5 126.5l285 1107h-371l-185 -741q-60 -238 -126.5 -380.5t-150 -208.5t-195.5 -66q-96 0 -152 41 t-56 110zM505 975h373q58 215 133 358q-28 53 -83.5 82.5t-113.5 29.5q-72 0 -123 -43.5t-95 -144t-91 -282.5z" />
<glyph horiz-adv-x="0" />
<glyph horiz-adv-x="682" />
<glyph horiz-adv-x="0" />
<glyph horiz-adv-x="0" />
<glyph unicode="&#xd;" horiz-adv-x="615" />
<glyph unicode=" "  horiz-adv-x="540" />
<glyph unicode="&#x09;" horiz-adv-x="540" />
<glyph unicode="&#xa0;" horiz-adv-x="540" />
<glyph unicode="!" horiz-adv-x="623" d="M112 100q0 54 35.5 91t88.5 37q35 0 63.5 -17.5t44.5 -46.5t16 -62q0 -34 -17 -62t-46 -43.5t-63 -15.5q-50 0 -86 33.5t-36 85.5zM253 407l95 895q8 84 25.5 134.5t47 73.5t74.5 23q56 0 82.5 -34.5t26.5 -112.5q0 -68 -24 -143.5t-102 -270.5q-52 -130 -95 -289.5 t-60 -275.5h-70z" />
<glyph unicode="&#x22;" horiz-adv-x="705" d="M302 1109q7 52 13 112.5t9 102.5t8 88t10.5 77t15.5 60t24.5 46t36 27t50.5 10q22 0 38 -8.5t24.5 -24.5t8.5 -36q0 -9 -11 -40t-31 -79.5t-42 -100.5t-49 -118t-47 -116h-58zM602 1109q7 52 12.5 112.5t8.5 102.5t8 88t11 77t16 60t24.5 46t36 27t50.5 10q32 0 51 -19 t19 -50q0 -9 -11 -40t-31 -79.5t-42 -100.5t-49.5 -118t-46.5 -116h-57z" />
<glyph unicode="#" horiz-adv-x="1317" d="M120 501l15 99h280l47 334h-282l17 98h283l68 482h118l-68 -482h297l66 482h118l-66 -482h263l-16 -98h-265l-46 -334h270l-16 -99h-273l-73 -501h-116l69 501h-296l-75 -501h-118l75 501h-276zM533 600h296l46 334h-295z" />
<glyph unicode="$" horiz-adv-x="1148" d="M43 319q0 90 58 159.5t133 69.5q58 0 96 -47q-36 -15 -63 -44.5t-42 -69.5t-15 -85q0 -77 42 -130t118 -76l155 639q-48 36 -80.5 63.5t-70.5 67t-61 76.5t-38.5 86t-15.5 101q0 109 60.5 200.5t165.5 145.5t233 58l41 168h112l-43 -176q124 -21 199.5 -92.5t75.5 -172.5 q0 -85 -52 -138t-135 -53q-32 0 -50.5 9.5t-30.5 32.5q23 6 43 22t34.5 38t23 50t8.5 57q0 39 -16 69.5t-47.5 51t-76.5 29.5l-125 -522q3 -2 8 -6q42 -30 63.5 -46.5t59 -48t58 -54.5t47 -58.5t40.5 -68.5t24 -76.5t10 -89.5q0 -95 -42.5 -183.5t-113.5 -152.5 t-168.5 -102.5t-202.5 -38.5h-8l-64 -268h-113l67 281q-130 32 -215.5 122t-85.5 203zM452 1205q0 -66 33.5 -118.5t98.5 -107.5l108 450q-108 -10 -174 -71t-66 -153zM480 84q47 2 91 12.5t80.5 28.5t67 43t51.5 55.5t32.5 66t11.5 74.5q0 45 -14.5 86.5t-43.5 79 t-60.5 67.5t-76.5 65z" />
<glyph unicode="%" horiz-adv-x="1342" d="M26 0l1225 1514h113l-1207 -1514h-131zM238 1124q0 99 45 195t117 156t146 60q77 0 124.5 -55t47.5 -145q0 -97 -46.5 -196t-119.5 -162t-145 -63q-49 0 -87.5 26t-60 74t-21.5 110zM344 1073q0 -51 19.5 -79t55.5 -28q44 0 88.5 62.5t73.5 160t29 193.5q0 49 -19 75.5 t-52 26.5q-44 0 -90 -62t-75.5 -158.5t-29.5 -190.5zM713 191q0 99 45.5 195t117.5 156t146 60q77 0 124 -55.5t47 -145.5q0 -98 -46 -196.5t-119 -161t-145 -62.5q-75 0 -122.5 58t-47.5 152zM820 139q0 -34 9 -58.5t25.5 -36.5t40.5 -12q44 0 88.5 62.5t73 160t28.5 193.5 q0 33 -8 55.5t-24 34.5t-38 12q-44 0 -90 -62t-75.5 -158.5t-29.5 -190.5z" />
<glyph unicode="&#x26;" horiz-adv-x="1765" d="M116 568q0 172 89.5 294t242.5 160q-14 33 -23.5 85t-9.5 100q0 144 97.5 235t250.5 91q120 0 193.5 -61.5t73.5 -160.5q0 -47 -17.5 -79.5t-46.5 -38.5q-33 74 -93.5 117t-133.5 43q-90 0 -148 -60t-58 -154q0 -101 67 -122q96 -31 127.5 -57t31.5 -71 q0 -42 -25.5 -66.5t-69.5 -24.5q-30 0 -54.5 11.5t-41.5 28l-34 33t-39 28t-49 11.5q-67 0 -113 -68.5t-46 -169.5q0 -100 45 -190t121.5 -154.5t182.5 -102.5t223 -38q109 0 209.5 36t174 95.5t117.5 141.5t44 171q0 124 -79.5 208.5t-195.5 84.5q-96 0 -155.5 -48.5 t-59.5 -128.5q0 -59 31 -99t75 -40q46 0 46 47q0 8 -2 30t-2 30q0 34 21.5 56.5t55.5 22.5q41 0 70 -36t29 -86q0 -45 -27 -84t-73.5 -62t-101.5 -23q-95 0 -156.5 71t-61.5 181q0 141 106.5 230.5t274.5 89.5h206q119 0 190 49.5t71 132.5q0 50 -31.5 88.5t-71.5 38.5 q-21 0 -33 -10t-14.5 -25t-7.5 -33t-11 -33t-24.5 -25t-48.5 -10q-48 0 -74.5 26.5t-26.5 74.5q0 43 22.5 75t64 49t96.5 17q123 0 203 -80.5t80 -202.5q0 -137 -106.5 -227.5t-273.5 -94.5l-4 -9q35 -20 61.5 -64t41 -103.5t14.5 -124.5q0 -124 -56.5 -236t-152 -192.5 t-228.5 -127.5t-281 -47q-144 0 -272 45t-219 123t-144 187t-53 232z" />
<glyph unicode="'" horiz-adv-x="406" d="M302 1109q7 52 13 112.5t9 102.5t8 88t10.5 77t15.5 60t24.5 46t36 27t50.5 10q22 0 38 -8.5t24.5 -24.5t8.5 -36q0 -9 -11 -40t-31 -79.5t-42 -100.5t-49 -118t-47 -116h-58z" />
<glyph unicode="(" horiz-adv-x="662" d="M63 328q0 342 196 677t565 629l47 -55q-170 -171 -285.5 -325.5t-194.5 -321.5t-115 -345t-36 -388q0 -291 150 -525l-75 -55q-252 328 -252 709z" />
<glyph unicode=")" horiz-adv-x="658" d="M-227 -326q139 118 260 274.5t212 334.5t143.5 379t52.5 394q0 123 -34 245.5t-107 277.5l77 55q233 -317 233 -686q0 -347 -206 -691t-584 -638z" />
<glyph unicode="*" horiz-adv-x="1045" d="M220 1058q0 36 26.5 62t70.5 26q19 0 70.5 -13t88.5 -13q39 0 110 13q-41 46 -83 79.5t-69.5 48t-50.5 28t-34 30t-11 43.5q0 47 27.5 70t65.5 23q24 0 41 -10.5t27 -28t22 -45.5t24 -57.5t35 -68.5t53 -75q21 61 27 112t6 120q0 34 11.5 60t31.5 39t46 13q39 0 66 -28 t27 -60q0 -24 -17.5 -52.5t-41 -55t-53 -73t-48.5 -97.5q63 12 115 32t77.5 37t50.5 29.5t44 12.5q34 0 60.5 -29t26.5 -65q0 -14 -5.5 -29t-16 -28t-28.5 -21t-40 -8q-17 0 -63 11t-85 11q-54 0 -124 -11q27 -33 59.5 -60.5t59 -42.5t52 -30.5t42.5 -27.5t27.5 -30.5 t10.5 -43.5q0 -41 -26 -64.5t-64 -23.5q-25 0 -43.5 10.5t-29.5 29t-16.5 34t-10.5 35.5q-7 33 -39 86.5t-69 91.5q-23 -66 -29.5 -112t-8.5 -114q-3 -120 -88 -120q-44 0 -67 27.5t-23 67.5q0 16 5.5 29.5t16 25.5t34.5 37q31 30 51 64t52 114q-72 -12 -125.5 -32t-76 -36 t-44.5 -27.5t-41 -11.5q-36 0 -62.5 28t-26.5 64z" />
<glyph unicode="+" horiz-adv-x="1135" d="M108 615v98h409v411h102v-411h409v-98h-409v-411h-102v411h-409z" />
<glyph unicode="," horiz-adv-x="520" d="M-77 -281q102 71 159 149t57 138q-23 -6 -41 -6q-49 0 -74.5 31t-25.5 83q0 29 10.5 55.5t28.5 45t43 29.5t53 11q60 0 100.5 -41t40.5 -98q0 -111 -80 -233t-226 -227z" />
<glyph unicode="-" horiz-adv-x="913" d="M118 488l45 163h608l-45 -163h-608z" />
<glyph unicode="." horiz-adv-x="514" d="M-2 114q0 29 10.5 55.5t28.5 45t43 29.5t53 11q60 0 100.5 -41t40.5 -98t-41 -96t-100 -39q-56 0 -95.5 37.5t-39.5 95.5z" />
<glyph unicode="/" horiz-adv-x="766" d="M-57 0l834 1514h122l-820 -1514h-136z" />
<glyph unicode="0" horiz-adv-x="1289" d="M135 507q0 123 29.5 250.5t79.5 239.5t120.5 211.5t149.5 170.5t169 112.5t176 41.5q170 0 273.5 -138t103.5 -363q0 -122 -30 -251t-81.5 -244t-122.5 -218t-150 -177t-168 -117.5t-173 -43.5q-111 0 -196.5 65.5t-132.5 185t-47 275.5zM354 352q0 -127 48 -197.5 t135 -70.5q55 0 113.5 45.5t111 123.5t100 185t81.5 226.5t54 252.5t20 259q0 123 -46 189t-132 66q-66 0 -137 -63t-132 -172.5t-110 -245.5t-77.5 -293.5t-28.5 -304.5z" />
<glyph unicode="1" horiz-adv-x="931" d="M-8 0l21 79q72 0 121.5 12t89.5 43.5t67 84t47 133.5l201 808q3 23 3 31q0 15 -6 20.5t-22 5.5q-15 0 -56 -8t-103 -15.5t-128 -7.5l11 82q82 0 156.5 20.5t141 61t118 82.5t111.5 101h72l-253 -1006q-2 -8 -12.5 -49.5t-13.5 -53.5t-10 -44.5t-9.5 -49t-5 -39.5 t-2.5 -41q0 -84 47.5 -127.5t162.5 -43.5l-21 -79h-728z" />
<glyph unicode="2" horiz-adv-x="1228" d="M22 0l17 105q334 265 525 452.5t277.5 335.5t86.5 287q0 114 -60 182.5t-162 68.5q-115 0 -194 -79t-79 -190q0 -89 48 -138t136 -49q-12 -32 -36.5 -55.5t-58.5 -36t-74 -12.5q-95 0 -154.5 67t-59.5 175q0 115 68.5 212t186.5 153.5t258 56.5q186 0 299.5 -99 t113.5 -262q0 -135 -84 -276.5t-266 -309.5t-486 -385v-10h402q96 0 150 30.5t109 116.5h73l-124 -340h-912z" />
<glyph unicode="3" horiz-adv-x="1212" d="M47 285q0 55 19.5 105.5t52 87t77.5 59t93 22.5q52 0 89 -24.5t44 -62.5q-72 0 -125 -62t-53 -147q0 -86 59 -133t166 -47q152 0 245.5 96t93.5 252q0 131 -63 218.5t-157 87.5q-23 0 -78.5 -7.5t-76.5 -7.5q-63 0 -63 39q0 21 18 35t48 22.5t69.5 16.5t83 19t87 26 t83 42.5t70 65t48.5 96t18 131.5q0 113 -43 165.5t-134 52.5q-103 0 -168.5 -57t-65.5 -145q0 -61 32 -94.5t90 -33.5q-15 -34 -51.5 -54.5t-82.5 -20.5q-75 0 -121.5 50.5t-46.5 133.5q0 91 56 164.5t154 115t219 41.5q173 0 275.5 -81.5t102.5 -220.5q0 -90 -47.5 -176.5 t-129.5 -149.5t-179 -85v-12q133 -35 209 -127t76 -219q0 -78 -30 -151.5t-84 -132.5t-126 -104t-161.5 -69t-184.5 -24q-181 0 -294 84.5t-113 219.5z" />
<glyph unicode="4" horiz-adv-x="1135" d="M26 561l25 99l915 873h86l-219 -852h242l-29 -120h-242l-136 -561h-204l142 561h-580zM230 681h409l141 514l-5 2z" />
<glyph unicode="5" horiz-adv-x="1199" d="M60 293q0 71 28.5 132t77 97.5t104.5 36.5q47 0 83.5 -25t43.5 -62q-63 0 -106 -53.5t-43 -133.5q0 -92 62.5 -147t167.5 -55q108 0 194 59.5t134.5 166.5t48.5 241q0 155 -70 236t-205 81q-34 0 -65 -5t-54.5 -13t-45 -18.5t-37.5 -21.5t-30.5 -21.5t-25.5 -18.5 t-21.5 -13t-19.5 -5q-12 0 -20.5 9.5t-8.5 23.5q0 15 3 26l246 723q99 -34 321 -34q226 0 328 36l12 -2q-81 -233 -342 -233q-121 0 -274 35l-131 -387l7 -12q13 6 37 11.5t52 9.5t58.5 6.5t55.5 2.5q131 0 237 -56.5t166 -157t60 -225.5q0 -111 -49.5 -212t-133 -174 t-199 -116.5t-240.5 -43.5q-184 0 -295 85t-111 227z" />
<glyph unicode="6" horiz-adv-x="1248" d="M139 531q0 127 30 254t82.5 236.5t127 205t159.5 162.5t184 105.5t198 38.5q131 0 219 -60t88 -150q0 -51 -29 -81t-78 -30q-43 0 -69.5 27t-26.5 80q0 44 -9 70.5t-32.5 41t-62.5 14.5q-104 0 -205 -71t-180.5 -199t-121.5 -290l6 -4q127 78 269 78q185 0 298 -113.5 t113 -297.5q0 -111 -44.5 -215.5t-117.5 -181.5t-173 -123.5t-205 -46.5q-193 0 -306.5 148.5t-113.5 401.5zM338 397q0 -159 53.5 -243.5t154.5 -84.5q89 0 162 64.5t115 177.5t42 250q0 150 -54 226t-158 76q-142 0 -228.5 -128t-86.5 -338z" />
<glyph unicode="7" horiz-adv-x="1030" d="M122 60q0 38 50.5 118t255.5 372l553 787h-366q-52 0 -83 -1t-61 -7t-47 -14t-35.5 -25.5t-32 -38.5t-32.5 -56l-41 -77h-84l182 467h60q0 -3 -1 -7.5t-1 -8.5q0 -30 32.5 -42.5t110.5 -12.5h596l-6 -39q-46 -67 -95 -146t-126.5 -214.5t-124 -218t-169.5 -304 t-181 -324.5q-93 -168 -147.5 -227.5t-112.5 -59.5q-42 0 -68 21.5t-26 57.5z" />
<glyph unicode="8" horiz-adv-x="1255" d="M84 358q0 161 102.5 269t310.5 167q-101 67 -155.5 156t-54.5 185q0 107 66.5 199.5t178 145.5t239.5 53q113 0 205 -41t145 -113.5t53 -161.5q0 -130 -102.5 -237.5t-253.5 -135.5q250 -155 250 -407q0 -131 -70 -235t-194 -162.5t-281 -58.5q-205 0 -322 100t-117 277z M283 344q0 -127 64 -193.5t188 -66.5q144 0 236 82.5t92 210.5q0 94 -47 168.5t-144 140.5l-102 67q-287 -129 -287 -409zM492 1201q0 -69 43.5 -140t126.5 -125l81 -51q244 131 244 325q0 64 -27 113.5t-80 78.5t-125 29q-113 0 -188 -65t-75 -165z" />
<glyph unicode="9" horiz-adv-x="1246" d="M94 191q0 33 13 58.5t37 39t57 13.5q43 0 69.5 -27t26.5 -80q0 -44 9 -70.5t32.5 -41t62.5 -14.5q104 0 205 73.5t180 206t122 300.5l-6 4q-128 -79 -269 -79q-185 0 -298 113.5t-113 297.5q0 107 44.5 208.5t118 175.5t173.5 119t205 45q193 0 306 -148t113 -402 q0 -127 -30 -254t-82.5 -237t-127 -205t-159.5 -162t-184 -105.5t-198 -38.5q-131 0 -219 60t-88 150zM456 973q0 -150 54 -226.5t158 -76.5q142 0 228.5 123t86.5 323q0 80 -13.5 141.5t-40 103t-65.5 63t-89 21.5q-67 0 -126 -36.5t-101.5 -99.5t-67 -150.5t-24.5 -185.5z " />
<glyph unicode=":" horiz-adv-x="597" d="M30 114q0 60 39 100.5t96 40.5q60 0 99.5 -41t39.5 -98t-40.5 -96t-98.5 -39q-56 0 -95.5 37.5t-39.5 95.5zM191 724q0 39 17.5 71t49 51t68.5 19q60 0 100 -41t40 -98.5t-41 -97t-99 -39.5q-55 0 -95 38.5t-40 96.5z" />
<glyph unicode=";" horiz-adv-x="600" d="M-45 -281q101 71 158.5 149t57.5 138q-23 -6 -41 -6q-33 0 -56 14.5t-33.5 40t-10.5 59.5q0 60 39 100.5t96 40.5q60 0 99.5 -41t39.5 -98q0 -111 -79.5 -233.5t-224.5 -226.5zM191 724q0 39 17.5 71t49 51t68.5 19q60 0 100 -41t40 -98.5t-41 -97t-99 -39.5 q-55 0 -95 38.5t-40 96.5z" />
<glyph unicode="&#x3c;" horiz-adv-x="1214" d="M110 598v126l901 456v-111l-812 -409l812 -412v-107z" />
<glyph unicode="=" horiz-adv-x="1251" d="M137 495l28 98h893l-28 -98h-893zM236 829l27 99h893l-27 -99h-893z" />
<glyph unicode="&#x3e;" horiz-adv-x="1220" d="M240 141v107l812 412l-812 409v111l900 -456v-126z" />
<glyph unicode="?" horiz-adv-x="919" d="M261 102q0 53 36 89.5t88 36.5t88 -37t36 -89q0 -33 -16.5 -61t-45.5 -44t-64 -16q-52 0 -87 34.5t-35 86.5zM263 1246q0 78 49 145t132.5 105.5t182.5 38.5q74 0 135 -22.5t103.5 -63.5t66 -99.5t23.5 -128.5q0 -57 -16 -109.5t-43 -93.5t-63.5 -79t-78 -68t-84.5 -59.5 t-84 -54t-77.5 -51.5t-64 -52t-43.5 -54.5t-16 -60.5q0 -39 23.5 -59t67.5 -20q32 0 58 11t47 33t40 57l53 -32q-75 -154 -218 -154q-86 0 -131.5 50.5t-45.5 144.5q0 42 10.5 81.5t24.5 69.5t41 62.5t48.5 53.5t59.5 50t60 44t65 42q35 23 53 35.5t48.5 34.5t46.5 37 t37 37.5t31 42t17.5 44.5t7.5 51q0 53 -27 95.5t-75.5 66.5t-109.5 24q-54 0 -98.5 -18.5t-70.5 -51t-26 -73.5q0 -29 14.5 -45.5t35 -22.5t40.5 -12.5t34.5 -24t14.5 -49.5q0 -30 -13.5 -51.5t-37.5 -33t-58 -11.5q-80 0 -134.5 57t-54.5 141z" />
<glyph unicode="@" horiz-adv-x="2024" d="M130 589q0 131 35.5 254.5t99.5 227t156.5 190t203.5 146.5t242.5 93t271.5 33q173 0 320 -51.5t250 -143t160.5 -222.5t57.5 -287q0 -106 -26.5 -208t-73.5 -186t-109 -148t-137 -99.5t-153 -35.5q-194 0 -211 223l-5 2q-61 -102 -151 -163.5t-180 -61.5q-127 0 -211 95 t-84 241q0 105 45 210t117.5 184.5t168.5 129.5t192 50q91 0 146.5 -47t83.5 -146l6 -2l45 175h189l-132 -466q-51 -179 -51 -248q0 -24 10.5 -42t30 -27t45.5 -9q51 0 103.5 32.5t97 89.5t80 129t55.5 157t20 168q0 131 -52 246t-142.5 197t-218.5 129t-275 47 q-175 0 -331 -66.5t-268 -180.5t-177 -273t-65 -337q0 -167 58 -308t162 -240t253.5 -154t326.5 -55q331 0 617 197l41 -62q-173 -119 -336.5 -174t-347.5 -55q-207 0 -384.5 63.5t-302.5 175t-195.5 270.5t-70.5 343zM779 446q0 -101 33 -153.5t98 -52.5q62 0 128 49 t117.5 124.5t85 173t33.5 188.5q0 96 -39.5 150t-110.5 54q-84 0 -165 -77t-130.5 -201.5t-49.5 -254.5z" />
<glyph unicode="A" d="M-212 0l19 79q93 0 195 80t283 295l906 1079h165l-273 -1207q-23 -103 -23 -151q0 -40 16 -60t54 -28t112 -8l-19 -79h-582l19 79q41 0 68 3t51 14t39 27t29 46t24.5 66.5t23.5 92.5l53 242h-423l-124 -129q-78 -82 -126 -135.5t-70.5 -84.5t-29 -46t-6.5 -29 q0 -19 7.5 -31.5t25.5 -20.5t46 -11.5t69 -3.5l-20 -79h-509zM610 668h356l161 610h-9z" />
<glyph unicode="B" horiz-adv-x="1446" d="M-57 0l21 79q43 0 72 3t56 12t45 25t35.5 42.5t30.5 63t27 88.5l232 867q22 90 22 135t-18.5 71t-58 37.5t-105.5 11.5l22 79h528q60 0 115.5 -6.5t113 -21t104.5 -41t84.5 -62.5t58.5 -89.5t21 -119.5q0 -73 -26.5 -133t-67 -98.5t-98.5 -67t-111 -43t-114 -24.5v-7 q172 -36 262.5 -129.5t90.5 -236.5q0 -131 -80.5 -230.5t-221.5 -152t-321 -52.5h-719zM413 206q0 -25 7.5 -45t22 -32.5t31.5 -21t39.5 -12.5t41.5 -5.5t43 -1.5q85 0 158.5 19t128 53t93.5 81t58.5 105t19.5 123q0 148 -96.5 217.5t-297.5 69.5h-112l-96 -349 q-41 -150 -41 -201zM576 857h146q186 0 302 90.5t116 236.5q0 127 -73 184.5t-241 57.5q-53 0 -85 -36.5t-55 -121.5z" />
<glyph unicode="C" horiz-adv-x="1430" d="M144 591q0 123 31.5 243t86.5 223t133.5 191.5t170 151t198.5 98t215 35.5q186 0 354 -117l72 98h73l-90 -494h-75q-14 213 -91 312t-227 99q-127 0 -241 -65.5t-195.5 -177.5t-129.5 -268t-48 -331q0 -241 96.5 -364t283.5 -123q95 0 177 34t155 103.5t143 179.5l72 -47 q-136 -210 -272.5 -300.5t-317.5 -90.5q-265 0 -419.5 164.5t-154.5 445.5z" />
<glyph unicode="D" horiz-adv-x="1643" d="M-57 0l21 79q46 0 75.5 3t57 12.5t45 24.5t34 42t29 62t25.5 88l226 869q2 6 14.5 46.5t20.5 73t8 53.5q0 27 -15 45t-43 25t-51 9.5t-54 2.5h-37l25 79h533q313 0 496 -152q107 -88 160.5 -214.5t53.5 -269.5q0 -174 -75.5 -346.5t-197.5 -293.5q-130 -129 -295 -183.5 t-368 -54.5h-688zM417 232q0 -146 196 -146q107 0 202 27t167.5 73t132 109.5t101 136t69.5 152.5t41 159t13 156q0 162 -59.5 279t-171.5 177.5t-266 60.5q-32 0 -52 -3.5t-39 -14t-31.5 -30.5t-21.5 -53l-232 -861q-49 -181 -49 -222z" />
<glyph unicode="E" horiz-adv-x="1454" d="M-51 0l21 79q67 0 107.5 9t71 37t48.5 70t37 116l228 867q28 108 28 153q0 62 -43.5 83t-153.5 21l22 79h1073v-398h-75q-25 93 -56 154t-72.5 95.5t-89 48.5t-112.5 14h-255l-154 -584h124q104 0 157.5 44t116.5 180h72l-118 -582h-78q5 59 5 102q0 89 -34.5 128.5 t-122.5 39.5h-148l-111 -422q-18 -68 -18 -110q0 -72 64.5 -106t214.5 -34q151 0 249.5 33t165 103t122.5 195h92l-153 -415h-1225z" />
<glyph unicode="F" horiz-adv-x="1295" d="M-51 0l21 79q67 0 107.5 9t71 37t48.5 70t37 116l228 867q28 108 28 153q0 62 -43.5 83t-153.5 21l22 79h1073v-398h-75q-25 93 -56 154t-72.5 95.5t-89 48.5t-112.5 14h-255l-154 -584h134q104 0 157.5 44t115.5 180h73l-138 -622h-79q7 83 7 122q0 100 -31 144t-107 44 h-158l-111 -422q-18 -68 -18 -110q0 -48 23 -78.5t76 -46t141 -15.5l-22 -84h-688z" />
<glyph unicode="G" horiz-adv-x="1589" d="M144 591q0 122 33 242.5t91 223.5t140.5 191.5t178 151t207 98t225.5 35.5q207 0 392 -117l73 98h73l-71 -433h-75q-19 181 -110 265.5t-267 84.5q-136 0 -257 -65.5t-208 -177.5t-137.5 -268t-50.5 -331q0 -166 43 -278.5t127.5 -168.5t209.5 -56q112 0 197.5 39.5 t135.5 119.5t50 192q0 81 -36 116.5t-131 35.5l18 77h538l-19 -77q-32 0 -50 -2t-38 -11t-32 -25t-27 -46.5t-28 -72t-30 -106.5q-3 -13 -11 -44.5t-12.5 -48.5t-10 -43.5t-8 -49t-3.5 -44.5q-35 -6 -95 -26t-114.5 -39t-146 -34.5t-190.5 -15.5q-265 0 -419.5 164.5 t-154.5 445.5z" />
<glyph unicode="H" horiz-adv-x="1790" d="M-55 0l21 79q62 0 101 9t71 35t53.5 70.5t40.5 117.5l230 869q30 113 30 161q0 58 -42 76t-153 18l22 79h638l-21 -79q-45 0 -76.5 -5t-59.5 -19.5t-47 -36t-38 -59.5t-34 -85t-34 -117l-77 -291h763l95 358q29 113 29 161q0 24 -7 40.5t-20.5 27.5t-38 16.5t-54 7.5 t-75.5 2l22 79h639l-22 -79q-39 0 -67 -4t-53 -12.5t-44 -26t-35.5 -40t-31.5 -59t-28.5 -78.5t-29.5 -102l-207 -783q-23 -85 -23 -137q0 -65 41 -89.5t138 -24.5l-23 -79h-628l22 79q62 0 100.5 9t70.5 35t53.5 70.5t40.5 117.5l109 411h-764l-101 -392q-24 -88 -24 -137 q0 -65 41 -89.5t138 -24.5l-24 -79h-627z" />
<glyph unicode="I" horiz-adv-x="825" d="M-55 0l21 79q62 0 101 9t71 35t53.5 70.5t40.5 117.5l230 869q30 113 30 161q0 58 -42 76t-153 18l22 79h638l-21 -79q-45 0 -76.5 -5t-59.5 -19.5t-47 -36t-38 -59.5t-34 -85t-34 -117l-206 -783q-24 -88 -24 -137q0 -65 41 -89.5t138 -24.5l-24 -79h-627z" />
<glyph unicode="J" horiz-adv-x="1067" d="M-45 238q0 93 49.5 154.5t123.5 61.5q26 0 48.5 -8.5t38.5 -23.5t25.5 -36t9.5 -46q0 -27 -10.5 -48t-25.5 -34.5t-30 -25t-25.5 -27t-10.5 -34.5q0 -38 32.5 -62.5t82.5 -24.5q95 0 171.5 93t120.5 260l194 743q30 113 30 161q0 39 -18.5 58.5t-63.5 27.5t-133 8l22 79 h639l-22 -79q-42 0 -70.5 -4.5t-54 -19t-43 -35.5t-35.5 -59.5t-32.5 -85t-33.5 -118.5l-197 -747q-48 -185 -172 -285t-300 -100q-99 0 -168.5 30t-105.5 88t-36 139z" />
<glyph unicode="K" horiz-adv-x="1621" d="M-37 0l22 79q57 0 93 8.5t65 35t48.5 70.5t38.5 118l230 869q30 113 30 161q0 58 -42 76t-153 18l22 79h638l-21 -79q-45 0 -76.5 -5t-59.5 -19.5t-47 -36t-38 -59.5t-34 -85t-34 -117l-73 -274l407 292q238 170 238 249q0 55 -132 55l20 79h559l-20 -79q-14 0 -26 -2 t-24.5 -5.5t-30 -12.5t-33.5 -18t-43 -27l-51 -34t-65 -45t-77 -55t-96 -68.5t-113 -79.5l-303 -213l386 -507q56 -74 91.5 -119t67.5 -80t51 -51t43 -26t41 -11.5t48 -1.5l-22 -79h-617l22 79q75 0 110 11t35 43q0 55 -112 207l-311 416l-78 -54l-98 -372q-24 -88 -24 -137 q0 -44 21 -69t63 -35t114 -10l-24 -79h-626z" />
<glyph unicode="L" horiz-adv-x="1379" d="M-49 0l21 79q53 0 89 6.5t64 21t47.5 42.5t34 65.5t29.5 96.5l222 869q30 125 30 161q0 58 -42 76t-153 18l22 79h638l-21 -79q-45 0 -76.5 -5t-59 -19.5t-47 -36t-38.5 -59.5t-34 -85t-34 -117l-204 -779q-19 -68 -19 -110q0 -73 51 -106.5t170 -33.5t203.5 19.5 t150 64.5t112.5 113t90 173h92l-173 -454h-1165z" />
<glyph unicode="M" horiz-adv-x="2004" d="M-53 0l21 79q91 0 165 65.5t101 166.5l230 869q29 113 29 161q0 58 -41.5 76t-152.5 18l22 79h471l140 -1172h8l741 1172h415l-21 -79q-39 0 -66 -4.5t-50 -20.5t-38.5 -36t-32.5 -60.5t-30 -84t-33 -116.5l-206 -783q-24 -88 -24 -137q0 -44 21 -69t63 -35t114 -10 l-24 -79h-627l22 79q57 0 92.5 8.5t65 35t49 70.5t38.5 118l260 976h-7l-807 -1287h-84l-154 1287h-7l-252 -957q-14 -59 -14 -86q0 -78 45.5 -121t124.5 -44l-24 -79h-543z" />
<glyph unicode="N" horiz-adv-x="1655" d="M-17 0l21 79q90 0 164.5 65.5t101.5 166.5l231 873q8 29 8 60q0 61 -36.5 104t-101 64.5t-151.5 22.5l24 79h462l491 -1127h8l209 797q10 43 10 73q0 81 -47 129t-118 49l23 79h504l-22 -79q-49 0 -95 -30t-79.5 -83t-51.5 -119l-319 -1203h-79l-515 1184h-8l-223 -854 q-13 -51 -13 -84q0 -80 49.5 -123t137.5 -44l-24 -79h-561z" />
<glyph unicode="O" horiz-adv-x="1611" d="M146 596q0 123 31.5 243t87.5 223t135 190.5t172 149t201.5 96.5t219.5 35q251 0 400 -165.5t149 -444.5q0 -125 -31.5 -245.5t-87 -223.5t-134 -191.5t-171 -150t-200 -96.5t-218.5 -35q-166 0 -292 76t-194 215.5t-68 323.5zM383 589q0 -248 88 -375.5t257 -127.5 q97 0 186 43t159.5 122.5t122.5 188t80 246t28 289.5q0 235 -76 345.5t-235 110.5q-126 0 -239 -65.5t-194.5 -177.5t-129 -268t-47.5 -331z" />
<glyph unicode="P" horiz-adv-x="1311" d="M-34 0l22 79q95 0 154.5 56.5t91.5 177.5l232 867q26 98 26 147q0 59 -43 82t-162 26l22 79h546q253 0 395 -89.5t142 -248.5q0 -135 -91 -243t-253.5 -168.5t-364.5 -60.5h-143l-82 -297q-41 -147 -41 -201q0 -118 224 -118l-22 -88h-653zM566 804h96q147 0 264 49 t182.5 136.5t65.5 198.5q0 78 -35.5 131t-105.5 80t-174 27q-54 0 -84.5 -14t-48.5 -46t-36 -98z" />
<glyph unicode="Q" horiz-adv-x="1639" d="M122 -346q0 51 39.5 87.5t142.5 79.5l379 160q-246 10 -391.5 177.5t-145.5 439.5q0 123 32 242.5t89 222t137.5 190t175 149.5t205 96.5t224.5 34.5q169 0 296 -75t195.5 -214.5t68.5 -325.5q0 -263 -130.5 -490.5t-339.5 -341.5l-427 -232l5 -6q60 0 118 -18t104 -44.5 t92 -52.5t102 -44.5t114 -18.5q66 0 122.5 22.5t99 69t61.5 112.5l65 -30q-23 -105 -86.5 -186t-156 -125t-201.5 -44q-70 0 -136.5 19t-115.5 48t-99 62t-89 61.5t-82.5 48t-81.5 19.5q-34 0 -61.5 -14.5t-44.5 -35.5t-36.5 -46t-37 -46t-45 -35t-60.5 -14 q-47 0 -73.5 26.5t-26.5 71.5zM383 591q0 -159 40.5 -268t119.5 -165t194 -56q126 0 236 66.5t188.5 181.5t124 276.5t45.5 345.5q0 236 -78.5 347.5t-243.5 111.5q-129 0 -245 -65t-199.5 -177t-132.5 -268t-49 -330z" />
<glyph unicode="R" d="M-34 0l22 79q95 0 154.5 56.5t91.5 177.5l232 867q26 98 26 147q0 59 -43 82t-162 26l22 79h546q157 0 271 -40t175 -116.5t61 -181.5q0 -158 -115.5 -266t-314.5 -149l145 -360q21 -52 38 -90.5t35.5 -72.5t34 -56.5t34.5 -41.5t37.5 -30t42.5 -18.5t49.5 -10t58.5 -2.5 l-21 -79h-373l-289 737h-174l-92 -330q-41 -147 -41 -201q0 -118 224 -118l-22 -88h-653zM576 837h96q139 0 245 40.5t166.5 120.5t60.5 190q0 117 -72.5 177.5t-212.5 60.5q-54 0 -84.5 -14t-48.5 -46t-36 -98z" />
<glyph unicode="S" horiz-adv-x="1175" d="M32 0l82 499h65q12 -202 100 -308.5t240 -106.5q140 0 231.5 78t91.5 196q0 52 -19 100.5t-51 87t-74 76t-88 72t-92 69.5t-87.5 74t-73.5 81t-51 95t-19 111q0 112 62 206t168.5 148.5t233.5 54.5q91 0 165 -32t142 -99l39 82h59l-83 -387h-66q-6 177 -65.5 256.5 t-185.5 79.5q-120 0 -198 -65t-78 -165q0 -45 18.5 -86.5t49.5 -75.5t71 -67t84.5 -65t89 -66t85 -74.5t71.5 -84.5t49.5 -102t18.5 -122q0 -98 -39.5 -186.5t-106 -152.5t-159 -102t-195.5 -38q-215 0 -376 169l-41 -150h-68z" />
<glyph unicode="T" horiz-adv-x="1533" d="M154 1095l186 419h1313l-39 -419h-74q0 124 -32 199t-91.5 106t-154.5 31q-50 0 -83.5 -9.5t-61 -35.5t-47 -70.5t-38.5 -116.5l-231 -869q-5 -16 -12 -40t-10.5 -37.5t-6.5 -30.5t-3 -29q0 -63 50.5 -88.5t175.5 -25.5l-23 -79h-685l22 79q51 0 84.5 4.5t66.5 18 t55 39.5t42 67.5t36 102.5l240 896q19 74 19 118q0 56 -26.5 81t-82.5 25q-333 0 -511 -336h-78z" />
<glyph unicode="U" horiz-adv-x="1587" d="M224 431q0 117 39 263l131 484q25 98 25 151q0 59 -41.5 82.5t-143.5 23.5l25 79h628l-22 -79q-50 0 -81.5 -3.5t-60.5 -17.5t-46.5 -33.5t-36 -59.5t-32.5 -86.5t-34 -123.5l-128 -494q-26 -101 -26 -184q0 -159 82.5 -251t234.5 -92q76 0 141.5 24t116 65.5t94 103 t75 131.5t59.5 156q57 177 107 425t50 322q0 109 -200 118l23 79h517l-24 -79q-34 0 -57 -3.5t-44 -14.5t-35.5 -29t-29 -49.5t-26 -73t-24.5 -101.5l-84 -393q-171 -790 -674 -790q-247 0 -372.5 116t-125.5 334z" />
<glyph unicode="V" horiz-adv-x="1478" d="M216 -19l274 1207q24 108 24 151q0 58 -37.5 77t-146.5 19l20 79h582l-20 -79q-41 0 -67.5 -3t-50.5 -14t-39 -27t-29 -46t-24.5 -66.5t-22.5 -92.5l-199 -907h8l664 794q122 145 171.5 212.5t49.5 100.5q0 28 -32.5 38.5t-104.5 10.5l21 79h508l-19 -79q-64 0 -127 -33 t-147 -114.5t-204 -227.5l-887 -1079h-165z" />
<glyph unicode="W" horiz-adv-x="2091" d="M212 -19l274 1207q23 103 23 151q0 58 -37 77t-146 19l20 79h543l-20 -79q-44 0 -71 -8.5t-50 -36.5t-39.5 -75.5t-34.5 -128.5l-198 -887h8l666 855l8 34q24 108 24 151q0 57 -33.5 76.5t-129.5 19.5l19 79h562l-19 -79q-40 0 -67 -3t-51 -14t-39 -27t-29.5 -46 t-25 -66.5t-22.5 -92.5l-199 -887h8l606 774q78 101 117.5 154.5t65 97t25.5 65.5q0 18 -14.5 28t-40 13.5t-69.5 3.5l20 79h509l-19 -79q-66 0 -129.5 -30.5t-150.5 -114.5t-198 -230l-828 -1079h-165l212 937l-720 -937h-165z" />
<glyph unicode="X" horiz-adv-x="1535" d="M-77 0l20 79q42 4 64.5 6.5t49 11t41.5 17.5t39.5 30.5t45 44t57.5 64.5l454 524l-212 446q-62 127 -116.5 169.5t-153.5 42.5l22 79h612l-22 -79q-68 0 -100 -23.5t-32 -74.5q0 -63 61 -198l97 -213l169 189q172 192 172 262q0 58 -114 58l24 79h507l-21 -79 q-84 0 -157 -48t-194 -180l-343 -378l229 -501q68 -147 129 -198t169 -51l-18 -79h-649l18 79q84 0 124.5 23.5t40.5 74.5q0 57 -36 136l-159 351l-163 -180q-222 -244 -222 -334q0 -37 36.5 -54t116.5 -17l-17 -79h-569z" />
<glyph unicode="Y" horiz-adv-x="1354" d="M177 1435l22 79h552l-21 -79q-50 0 -80.5 -6.5t-45.5 -21.5t-15 -41q0 -31 17 -70l210 -508l274 400q27 40 37 55t23 38t16.5 37.5t3.5 32.5q0 40 -38.5 62t-107.5 22l22 79h485l-21 -79q-33 0 -56 -4.5t-42 -13t-39 -29.5t-38 -44t-50 -68l-420 -592l-92 -354 q-24 -88 -24 -137q0 -44 21 -69t63 -35t115 -10l-24 -79h-667l22 79q67 0 109.5 8.5t77 34.5t57 70.5t41.5 118.5l91 349l-236 567q-18 42 -32 71t-28 52.5t-28.5 38t-29 24.5t-34.5 14.5t-40 6t-50 1.5z" />
<glyph unicode="Z" horiz-adv-x="1320" d="M-13 0v41l1067 1379h-199q-61 0 -107.5 -2.5t-89.5 -9t-75.5 -16.5t-65 -27t-57.5 -38t-52.5 -52t-52.5 -66.5t-55 -84.5h-84l199 390h953v-38l-1057 -1378h246q194 0 332.5 79.5t221.5 257.5h84l-165 -435h-1043z" />
<glyph unicode="[" horiz-adv-x="724" d="M-39 -295l515 1907h473l-25 -92h-297l-466 -1723h297l-25 -92h-472z" />
<glyph unicode="\" horiz-adv-x="910" d="M295 1514h108l287 -1514h-126z" />
<glyph unicode="]" horiz-adv-x="724" d="M-201 -295l26 92h295l466 1723h-297l26 92h473l-516 -1907h-473z" />
<glyph unicode="^" horiz-adv-x="945" d="M118 452l325 352h176l142 -352h-89l-173 232l-295 -232h-86z" />
<glyph unicode="_" horiz-adv-x="1437" d="M-88 -281l45 133h1120l-45 -133h-1120z" />
<glyph unicode="`" horiz-adv-x="540" d="M57 1494q0 37 29.5 61t67.5 24q60 0 114 -65l192 -234h-92l-235 127q-76 43 -76 87z" />
<glyph unicode="a" horiz-adv-x="1120" d="M19 265q0 88 26.5 184.5t71.5 183.5t107 166t130 137t143 92t144 34q65 0 106.5 -31t66.5 -99l41 110h164l-113 -301q-36 -96 -70 -212.5t-54.5 -212t-20.5 -137.5q0 -57 37 -57q49 0 197 204l51 -41q-80 -144 -176 -224t-186 -80q-95 0 -95 147q0 15 7 104l-8 2 q-58 -110 -158.5 -181.5t-197.5 -71.5q-98 0 -155.5 76t-57.5 208zM206 276q0 -47 13.5 -82.5t39 -54.5t58.5 -19q52 0 112.5 51t113 133.5t96.5 178.5t69 194t25 173q0 34 -9.5 58.5t-28 37.5t-42.5 13q-73 0 -154.5 -69t-145 -170.5t-105.5 -223t-42 -220.5z" />
<glyph unicode="b" horiz-adv-x="1049" d="M55 224q0 101 84 367l238 767q30 105 30 126q0 69 -150 69l17 59l377 18l-250 -757l6 -4q58 90 143.5 140.5t181.5 50.5q118 0 183.5 -75t65.5 -205q0 -91 -27.5 -188.5t-75 -184.5t-113 -166t-139 -136t-155.5 -90.5t-160 -33.5q-113 0 -184.5 67.5t-71.5 175.5z M242 242q0 -161 100 -161q53 0 115.5 45.5t119.5 122t105 168.5t76 193t28 186q0 67 -31 113t-76 46q-52 0 -113.5 -45.5t-117.5 -122.5t-103 -168.5t-75 -192t-28 -184.5z" />
<glyph unicode="c" horiz-adv-x="866" d="M28 300q0 86 25.5 178.5t68.5 175.5t102.5 158.5t125 130t138.5 87t141 32.5q93 0 155 -51t62 -128q0 -48 -29.5 -79t-73.5 -31q-29 0 -52.5 13t-36.5 35.5t-13 49.5q0 19 8 41.5t8 29.5q0 28 -47 28q-64 0 -132.5 -61.5t-121.5 -156.5t-87.5 -217t-34.5 -236 q0 -95 36.5 -149t101.5 -54q68 0 150.5 73.5t141.5 186.5l69 -39q-81 -162 -190.5 -249t-233.5 -87q-84 0 -147.5 39.5t-98.5 112t-35 167.5z" />
<glyph unicode="d" horiz-adv-x="1175" d="M22 287q0 72 19.5 150.5t55 152.5t82 145t103 129.5t115 103t121.5 69.5t119 25q64 0 98.5 -24t70.5 -83l114 405q31 118 31 140q0 30 -39.5 41.5t-140.5 11.5l21 79h380l-219 -797q-81 -296 -111 -435.5t-30 -206.5q0 -81 49 -81q43 0 94 73t89 190l74 -17 q-66 -193 -146 -285t-180 -92q-71 0 -109 45t-38 130q0 38 14 90l-16 4q-71 -126 -177.5 -197.5t-206.5 -71.5q-101 0 -169 85.5t-68 220.5zM212 263q0 -70 35.5 -112.5t94.5 -42.5q64 0 138.5 78t132.5 188.5t97 236t39 217.5q0 62 -24.5 95.5t-73.5 33.5q-74 0 -154.5 -70 t-142 -173.5t-102 -226.5t-40.5 -224z" />
<glyph unicode="e" horiz-adv-x="895" d="M28 300q0 89 26 182.5t70.5 176.5t106 157.5t130 128.5t146 85.5t150.5 31.5q46 0 86 -13t68 -35.5t44 -54t16 -68.5q0 -90 -87 -187t-235 -175.5t-321 -117.5q-8 -56 -8 -109q0 -69 17.5 -117t51.5 -72.5t83 -24.5q71 0 149.5 57t144.5 157l64 -41q-84 -138 -191 -209 t-230 -71q-134 0 -207.5 83.5t-73.5 235.5zM248 499q190 52 314 161.5t124 226.5q0 83 -69 83q-66 0 -140.5 -68t-135 -175.5t-93.5 -227.5z" />
<glyph unicode="f" horiz-adv-x="656" d="M-381 -362q0 49 25.5 78t70.5 29q30 0 48.5 -14.5t27 -34.5t16.5 -40.5t24.5 -35t44.5 -14.5q30 0 57 22t48 60.5t34 89.5l285 1107h-188l25 90h187q86 345 201.5 501t272.5 156q115 0 190.5 -48.5t75.5 -120.5q0 -46 -26 -77t-68 -31t-65.5 19.5t-32 47t-15 55.5 t-25 47.5t-52.5 19.5q-51 0 -102.5 -74t-95 -201t-77.5 -294h199l-27 -90h-193l-185 -741q-34 -133 -67.5 -233.5t-70 -173t-74.5 -120.5t-83 -76.5t-92 -40t-105 -11.5q-81 0 -134.5 42.5t-53.5 106.5z" />
<glyph unicode="g" horiz-adv-x="1080" d="M-148 -234q0 80 53 133.5t132 53.5q46 0 100 -28q-53 -22 -81 -66t-28 -105q0 -82 83.5 -129t228.5 -47q77 0 145.5 17t115 44.5t74 62t27.5 68.5q0 55 -67 99.5t-185 65.5q-221 38 -317.5 88t-96.5 136q0 58 51 98t178 77l5 8q-150 106 -150 273q0 90 37.5 173 t100.5 143.5t149.5 96.5t180.5 36q145 0 243 -107q92 105 180 105q62 0 109.5 -39t47.5 -89q0 -39 -26.5 -65.5t-66.5 -26.5q-19 0 -33.5 6t-23 15t-17.5 20t-16.5 20t-20.5 15t-30 6q-13 0 -26 -5.5t-43 -25.5q18 -48 18 -114q0 -215 -120 -344t-330 -146 q-93 -7 -134.5 -23.5t-41.5 -47.5q0 -29 26 -49.5t68 -31.5t95.5 -22.5t109.5 -20.5t110 -28t96 -43.5t67.5 -67.5t25.5 -99q0 -169 -140.5 -268t-380.5 -99q-215 0 -348.5 76.5t-133.5 200.5zM304 542q0 -73 38.5 -120t100 -47t120.5 63.5t96 166t37 209.5q0 78 -35 124.5 t-93 46.5q-59 0 -121 -67t-102.5 -171t-40.5 -205z" />
<glyph unicode="h" horiz-adv-x="1128" d="M-13 0l388 1333q30 113 30 145q0 27 -16 42.5t-53.5 23t-105.5 9.5l14 79h401l-225 -759l6 -4q42 61 93.5 104t108.5 66t117 23q62 0 105 -25t65.5 -73t22.5 -116q0 -130 -81 -351q-12 -35 -34 -95q-53 -149 -63.5 -181.5t-10.5 -47.5q0 -45 37 -45q27 0 61.5 21t74 60.5 t78.5 92.5l56 -41q-62 -115 -178.5 -197.5t-215.5 -82.5q-53 0 -76 29.5t-23 94.5q0 67 26 165.5t111 341.5q34 102 48.5 161t14.5 102q0 45 -15 63.5t-50 18.5q-121 0 -238.5 -193.5t-262.5 -628.5l-45 -135h-165z" />
<glyph unicode="i" horiz-adv-x="675" d="M53 761q23 45 66 97t95 97.5t111.5 76t107.5 30.5q50 0 74 -30t24 -102q0 -16 -2.5 -34.5t-9.5 -44t-13.5 -47t-19.5 -58.5t-22 -62t-27.5 -74.5t-29.5 -80.5l-73 -199q-41 -119 -41 -153q0 -20 10 -32.5t31 -12.5q22 0 48.5 16t50 40t47 53.5t39 53t25.5 41.5l60 -34 q-26 -51 -65 -104t-90 -103.5t-114 -82t-125 -31.5q-58 0 -86 30.5t-28 96.5q0 53 16.5 115t56.5 174l88 252q52 141 52 199q0 45 -28 45q-36 0 -91.5 -61.5t-79.5 -105.5zM424 1504q0 54 35.5 91t86.5 37q54 0 90 -37t36 -88.5t-37 -87t-89 -35.5q-50 0 -86 34t-36 86z" />
<glyph unicode="j" horiz-adv-x="587" d="M-375 -362q0 54 25.5 85t70.5 31q25 0 44 -11t29 -27.5t20 -35.5t17 -35.5t20.5 -27.5t30.5 -11q46 0 83 47t57 125l218 873q41 162 41 202t-29 40q-26 0 -64 -34.5t-65 -71t-40 -61.5l-57 35q18 36 49 77t71.5 80.5t83.5 71.5t89.5 52t85.5 20q51 0 74.5 -27t23.5 -84 q0 -40 -14 -111t-29 -128t-51 -187l-163 -592q-24 -84 -68.5 -164t-101.5 -142t-126 -100t-137 -38q-81 0 -134.5 42.5t-53.5 106.5zM344 1504q0 54 35 91t87 37q53 0 89 -37t36 -88.5t-36.5 -87t-88.5 -35.5q-51 0 -86.5 34t-35.5 86z" />
<glyph unicode="k" horiz-adv-x="1008" d="M-2 0l379 1409q15 56 15 73q0 42 -38 56.5t-146 14.5l19 59l390 20l-204 -757l7 -2q114 191 289 191q61 0 106 -20t69 -57t24 -87q0 -91 -92 -184.5t-253 -167.5l-52 -23l101 -260q20 -56 41.5 -82t48.5 -26q57 0 161 147l51 -27q-142 -296 -293 -296q-47 0 -77.5 32.5 t-67.5 119.5l-132 315l-44 -20l-123 -428h-179zM319 527q170 59 281 150.5t111 172.5q0 38 -21 59t-59 21q-54 0 -115.5 -55t-115 -148.5t-81.5 -199.5z" />
<glyph unicode="l" horiz-adv-x="615" d="M45 108q0 83 53 289l262 961q3 14 9 36t10 36.5t7.5 30t3.5 23.5q0 69 -150 69l15 59l360 18l-352 -1292q-31 -114 -31 -161q0 -20 10.5 -32.5t31.5 -12.5q29 0 66 26t69 64.5t56 73t38 60.5l60 -33q-61 -135 -177 -238.5t-207 -103.5q-69 0 -101.5 30.5t-32.5 96.5z" />
<glyph unicode="m" horiz-adv-x="1709" d="M34 666q69 202 154.5 299t194.5 97q63 0 89.5 -35.5t26.5 -118.5q0 -96 -33 -180l6 -6q183 340 387 340q76 0 119.5 -47t43.5 -128q0 -48 -33 -167l4 -7q111 188 202.5 268.5t194.5 80.5q77 0 115.5 -41.5t38.5 -129.5q0 -53 -21 -129t-78 -246q-67 -199 -82.5 -255 t-15.5 -90q0 -38 19 -38q58 0 242 231l52 -28q-43 -85 -118 -168t-154 -135t-133 -52q-49 0 -78 42t-29 112q0 49 26.5 136t129.5 384q37 104 51 146t19 62.5t5 38.5q0 31 -9.5 44t-30.5 13q-53 0 -125.5 -72t-157.5 -206q-60 -95 -108.5 -214t-170.5 -467h-186l131 396 q82 248 111.5 352.5t29.5 146.5q0 64 -49 64q-51 0 -129 -75.5t-153.5 -195.5t-120.5 -242l-165 -446h-173l145 450q38 121 60.5 193.5t37.5 126t20.5 81.5t5.5 48q0 54 -33 54q-43 0 -109 -95.5t-108 -220.5z" />
<glyph unicode="n" horiz-adv-x="1232" d="M34 666q69 202 154.5 299t194.5 97q63 0 89.5 -35.5t26.5 -120.5q0 -102 -33 -178l6 -6q100 175 203.5 257.5t224.5 82.5q86 0 131.5 -41.5t45.5 -118.5q0 -51 -21 -130t-83 -256q-32 -95 -43 -128t-30 -91.5t-25 -87t-6 -46.5q0 -30 20 -30q28 0 80.5 45.5t143.5 145.5 l51 -27q-42 -76 -113 -150t-146 -120t-126 -46q-49 0 -78 42.5t-29 113.5q0 54 24 134t132 384q36 104 48.5 151t12.5 81q0 72 -54 72q-45 0 -106.5 -48.5t-122 -127t-118 -181.5t-96.5 -208l-146 -394h-173l145 450q48 148 73.5 234.5t38 138.5t12.5 77q0 53 -33 53 q-44 0 -111.5 -98t-105.5 -218z" />
<glyph unicode="o" horiz-adv-x="1028" d="M47 375q0 84 22 169.5t60.5 161t92.5 141.5t115.5 113t132.5 74.5t142 27.5q143 0 233.5 -104t90.5 -274q0 -97 -31.5 -199.5t-87.5 -191t-126.5 -159.5t-155.5 -112t-167 -41q-67 0 -125 27t-101.5 76.5t-69 125t-25.5 165.5zM253 279q0 -70 17 -116t44 -65t65 -19 q64 0 132 69t119 173t84 230t33 235q0 99 -35 141.5t-100 42.5q-64 0 -130.5 -67.5t-116 -168.5t-81 -224t-31.5 -231z" />
<glyph unicode="p" horiz-adv-x="1106" d="M-187 -492l12 79q84 0 121.5 19.5t51.5 70.5l356 1216q-144 -74 -271 -210l-53 54q71 83 162.5 148.5t190.5 107.5l93 315h149l-68 -262q72 14 124 14q166 0 258.5 -91.5t92.5 -253.5q0 -101 -40 -198t-110.5 -176t-163.5 -143t-204 -105.5t-227 -56.5l-73 -274 q-15 -53 -15 -85q0 -48 40.5 -68t141.5 -22l-11 -79h-557zM309 120q98 19 192 73.5t166 131t116.5 176.5t44.5 203q0 118 -54.5 189t-144.5 71q-40 0 -98 -11z" />
<glyph unicode="q" horiz-adv-x="1051" d="M30 300q0 88 23.5 180.5t64 176t97 158t119.5 129t133.5 86.5t138.5 32q67 0 116.5 -33t91.5 -106l47 139h150l-362 -1336q-13 -49 -13 -68q0 -36 33 -52.5t117 -18.5l-11 -79h-507l11 79q83 0 121 19.5t52 70.5l144 490l-7 4q-53 -93 -131 -141.5t-171 -48.5 q-122 0 -189.5 84t-67.5 235zM234 287q0 -189 114 -189q42 0 88.5 28t88 75.5t79.5 112t65.5 135t44 148t16.5 148.5t-13.5 119t-39 71.5t-62.5 23.5q-61 0 -130 -65t-124 -162t-91 -218.5t-36 -226.5z" />
<glyph unicode="r" horiz-adv-x="910" d="M41 769q29 64 95 133t140 114.5t125 45.5q48 0 69.5 -35.5t21.5 -114.5q0 -58 -14 -130l6 -5q49 115 160.5 209.5t199.5 94.5q56 0 94.5 -36.5t38.5 -89.5q0 -51 -32.5 -84.5t-83.5 -33.5q-28 0 -49.5 11.5t-32.5 25t-25.5 25t-29.5 11.5q-49 0 -118.5 -84.5t-142 -231.5 t-129.5 -322l-88 -272h-183l128 407q74 233 99 325t25 133q0 43 -30 43q-40 0 -104 -54.5t-89 -110.5z" />
<glyph unicode="s" horiz-adv-x="748" d="M-26 165q0 56 27.5 89t71.5 33q84 0 96 -116q6 -64 21.5 -84t59.5 -20q70 0 111.5 43t41.5 117q0 42 -14 83t-36 74.5t-49 66.5t-53.5 67t-49 69.5t-36 80.5t-13.5 93q0 130 92 215.5t234 85.5q95 0 157.5 -48t62.5 -121q0 -41 -23 -65t-62 -24q-33 0 -54.5 18 t-32.5 43.5t-21 51t-27.5 43t-44.5 17.5q-43 0 -73 -37.5t-30 -91.5q0 -36 14 -71.5t35.5 -67.5t48 -65.5t53 -70.5t48.5 -76t35.5 -89t13.5 -104q0 -86 -49 -161t-128.5 -118.5t-168.5 -43.5q-116 0 -187 50.5t-71 133.5z" />
<glyph unicode="t" horiz-adv-x="717" d="M75 108q0 84 60 289l146 481h-169l25 92h172l102 338h180l-101 -338h214l-27 -92h-215l-163 -540q-33 -105 -36 -161q0 -45 39 -45q33 0 74 26t77.5 64.5t64 73.5t43.5 60l56 -33q-68 -135 -192.5 -238.5t-220.5 -103.5q-67 0 -98 30t-31 97z" />
<glyph unicode="u" horiz-adv-x="1165" d="M41 745q40 78 104 150t139 119.5t136 47.5q48 0 73.5 -30t25.5 -84q0 -63 -32 -159.5t-106 -279.5q-47 -118 -68.5 -187t-21.5 -125q0 -75 41 -75q31 0 83 45t108 116t111.5 169.5t91.5 196.5l145 393h183l-146 -451q-66 -206 -90 -291.5t-24 -120.5q0 -51 35 -51 q40 0 103.5 70t101.5 158l59 -30q-35 -87 -93 -165.5t-130.5 -129t-137.5 -50.5q-18 0 -32 3.5t-24.5 10.5t-19 18t-14 24.5t-9 31t-5 36.5t-1.5 43q0 73 14 147l-5 5q-51 -90 -102 -154t-99.5 -99.5t-92 -50.5t-89.5 -15q-86 0 -125.5 47.5t-39.5 128.5q0 75 27 166t72 204 q78 195 103 263t25 97q0 21 -18 21q-25 0 -73.5 -44.5t-131.5 -145.5z" />
<glyph unicode="v" horiz-adv-x="1135" d="M37 818q0 64 34 120t90.5 90t119.5 34q35 0 66.5 -13.5t51 -29t46.5 -29t54 -13.5q38 0 67 30q42 38 56.5 46.5t37.5 8.5q40 0 40 -34q0 -16 -10.5 -31t-70.5 -87q-90 -109 -148 -267.5t-58 -292.5q0 -68 16 -121.5t45.5 -83t67.5 -29.5q53 0 118.5 59t119 145.5 t90 191.5t36.5 190q0 56 -22.5 133t-22.5 114q0 55 26.5 84t76.5 29q60 0 86.5 -44t26.5 -143q0 -102 -26 -211t-70.5 -206.5t-106 -185.5t-129 -152t-143 -101.5t-146.5 -37.5q-108 0 -179 78.5t-71 197.5q0 113 61.5 265t173.5 311l-4 6q-40 0 -73.5 10.5t-55 25.5 t-38.5 30.5t-33 26t-31 10.5q-16 0 -24.5 -9.5t-8.5 -24.5q0 -11 5 -22t12.5 -19t16.5 -18t17 -19.5t13 -23t5 -27.5q0 -36 -27.5 -58.5t-70.5 -22.5q-33 0 -57 14.5t-37 41.5t-13 64z" />
<glyph unicode="w" horiz-adv-x="1670" d="M43 818q0 96 73.5 170t168.5 74q37 0 69 -13.5t51.5 -29t45.5 -29t52 -13.5q17 0 29.5 6t30.5 24q25 27 45.5 41t46.5 14q41 0 41 -40q0 -13 -13 -30.5t-68 -81.5q-110 -129 -173 -287.5t-63 -292.5q0 -96 32 -150t88 -54q53 0 124 51.5t152 146.5q-10 92 -10 164 q0 139 41 273t107 217.5t135 83.5q47 0 79.5 -41t32.5 -122q0 -106 -57.5 -246.5t-164.5 -292.5q12 -61 37.5 -109.5t60.5 -75.5t73 -27q53 0 112 51.5t105 130t76.5 177.5t30.5 189q0 66 -22.5 141t-22.5 112q0 55 26 84t76 29q41 0 65.5 -20.5t36.5 -63.5t12 -113 q0 -103 -23.5 -211.5t-64 -205t-96.5 -183t-118.5 -149t-133 -99t-136.5 -36.5q-82 0 -141 53.5t-90 156.5q-88 -102 -185.5 -156t-193.5 -54q-108 0 -168.5 70t-60.5 195q0 245 253 587l-3 6q-40 0 -73.5 10.5t-54.5 25.5t-38.5 30.5t-34 26t-32.5 10.5q-31 0 -31 -34 q0 -11 5 -22t12.5 -19t16.5 -18t16.5 -19.5t13 -23t5.5 -27.5q0 -36 -28 -58.5t-70 -22.5q-34 0 -58 14.5t-36.5 41.5t-12.5 64zM900 582q0 -59 10 -96q116 189 116 340q0 74 -30 74q-38 0 -67 -94t-29 -224z" />
<glyph unicode="x" horiz-adv-x="1135" d="M-100 135q0 55 31 88.5t84 33.5q31 0 51 -12t28 -30t15 -39t12 -39.5t18 -30.5t34 -12q63 0 129.5 99t116.5 265l55 191q35 116 35 190q0 52 -16.5 79.5t-48.5 27.5q-54 0 -144.5 -73t-153.5 -167l-60 35q21 46 57 93t80 87.5t90.5 72t92 50t82.5 18.5q48 0 87.5 -27 t62 -73.5t22.5 -104.5q58 92 139 148.5t154 56.5q68 0 115.5 -45.5t47.5 -110.5q0 -47 -26.5 -76t-70.5 -29q-23 0 -39.5 8t-25 21t-14.5 28.5t-10.5 31t-10.5 28.5t-17 21.5t-27 8.5q-64 0 -128.5 -104t-101.5 -266l-28 -120q-31 -132 -31 -220q0 -52 11 -85.5t34.5 -50 t58.5 -16.5q65 0 136 55.5t163 175.5l59 -36q-70 -132 -183.5 -216t-219.5 -84q-90 0 -148.5 62t-70.5 171l-6 2q-59 -105 -155 -170t-192 -65q-76 0 -124.5 43.5t-48.5 110.5z" />
<glyph unicode="y" horiz-adv-x="1011" d="M-218 -356q0 49 28 79.5t72 30.5q25 0 43 -11t27.5 -27.5t18 -35.5t15.5 -35.5t19.5 -27.5t30.5 -11q47 0 128.5 68t155.5 167t102 181l-105 552q-30 155 -62 220t-70 65q-36 0 -67.5 -56.5t-62.5 -177.5l-72 20q41 183 122.5 300t168.5 117q37 0 63.5 -28.5t54.5 -101.5 q49 -128 107 -403l67 -317h8q85 107 150.5 245.5t65.5 248.5q0 22 -3.5 67t-6.5 89t-3 62q0 66 33 102t77 36q48 0 73 -41t25 -103q0 -104 -73 -288.5t-190.5 -388t-247.5 -371.5q-294 -381 -513 -381q-80 0 -129.5 44.5t-49.5 110.5z" />
<glyph unicode="z" horiz-adv-x="1019" d="M-17 59q0 34 28.5 72t100.5 109l543 525l-4 6q-35 0 -84 25.5t-90.5 56.5t-92 57t-87.5 26q-33 0 -51.5 -16.5t-18.5 -44.5q0 -20 10 -34.5t24.5 -24t29.5 -19.5t25 -28.5t10 -44.5q0 -28 -11 -48.5t-33 -31.5t-52 -11q-61 0 -96.5 40.5t-35.5 110.5q0 117 90 197.5 t221 80.5q54 0 100.5 -16t77.5 -38.5t57.5 -45t53.5 -38.5t53 -16q25 0 42 14t27 33.5t19.5 39t26 33.5t40.5 14q27 0 42.5 -16.5t15.5 -44.5q0 -33 -22 -64t-109 -114l-518 -499l4 -5q38 0 89 -21t93 -45.5t94.5 -45t92.5 -20.5q58 0 99.5 37.5t75.5 127.5l67 -26 q-39 -144 -136 -234.5t-212 -90.5q-50 0 -96 18.5t-80.5 44.5t-65.5 52.5t-64.5 44.5t-65.5 18q-30 0 -47.5 -16t-25 -39.5t-14.5 -47t-26 -40t-50 -16.5t-47.5 15t-16.5 44z" />
<glyph unicode="{" horiz-adv-x="660" d="M49 -133q0 52 24 141l104 386q16 60 16 105q0 63 -29 104t-93 46l13 49q59 11 98.5 30t66.5 52.5t44 71.5t33 99l94 345q16 56 31.5 97.5t35 78t43.5 61.5t54.5 45t69.5 31.5t87 17t109 5.5l-13 -45q-64 -16 -109 -48.5t-73 -81t-47 -120.5l-94 -352q-12 -44 -23.5 -77 t-28 -66t-37 -57.5t-47 -46t-61.5 -36.5t-79 -23l-2 -11q74 -14 105.5 -49t31.5 -96q0 -53 -21 -133l-104 -390q-20 -72 -20 -114q0 -53 28 -85.5t92 -52.5l-12 -43q-104 0 -165 14.5t-91.5 50t-30.5 97.5z" />
<glyph unicode="|" horiz-adv-x="687" d="M250 -492v2104h157v-2104h-157z" />
<glyph unicode="}" horiz-adv-x="660" d="M-167 -295l11 43q103 28 155.5 85.5t81.5 166.5l104 390q17 62 36.5 106t50.5 80.5t75.5 59t106.5 32.5l2 11q-50 11 -80.5 32.5t-42.5 51t-12 70.5q0 60 25 152l95 352q17 65 17 112q0 106 -110 138l12 45q152 0 214.5 -37.5t62.5 -127.5q0 -52 -29 -171l-94 -345 q-22 -80 -22 -122q0 -36 12.5 -61.5t41 -43t75.5 -26.5l-13 -49q-50 -4 -91.5 -27.5t-71 -60.5t-49.5 -78.5t-32 -88.5l-105 -386q-25 -91 -57 -148t-83 -92.5t-118 -49t-168 -13.5z" />
<glyph unicode="~" horiz-adv-x="1047" d="M137 490q17 97 75 160t130 63q79 0 221 -47q128 -43 184 -43q22 0 37.5 8.5t27 26.5t19.5 48h66q-9 -82 -64 -162q-59 -70 -127 -70q-34 0 -76.5 10.5t-132.5 38.5q-144 45 -210 45q-31 0 -50.5 -18t-32.5 -60h-67z" />
<glyph unicode="&#xa1;" horiz-adv-x="624" d="M96 128q0 68 24 143.5t102 270.5q52 130 95 289.5t60 275.5h67l-92 -895q-13 -125 -46.5 -178t-101.5 -53q-55 0 -81.5 34.5t-26.5 112.5zM340 1411q0 52 36.5 87t89.5 35q50 0 86 -33.5t36 -85.5q0 -54 -35.5 -91.5t-88.5 -37.5t-88.5 37.5t-35.5 88.5z" />
<glyph unicode="&#xa2;" horiz-adv-x="919" d="M43 300q0 95 30.5 197t83.5 192.5t120.5 167t146 128.5t154.5 69l106 319h102l-102 -313q78 -12 127.5 -61t49.5 -116q0 -48 -28.5 -79t-73.5 -31q-21 0 -40 7.5t-33 20.5t-21.5 31t-7.5 39q0 19 7.5 41.5t7.5 29.5q0 28 -47 28q-43 0 -88.5 -28.5t-86.5 -76.5t-78 -114 t-64 -139t-42.5 -155t-15.5 -158q0 -95 36 -149t101 -54q69 0 151.5 73.5t142.5 186.5l68 -39q-79 -156 -183 -242.5t-222 -91.5l-87 -272h-101l88 281q-94 26 -147.5 107t-53.5 201z" />
<glyph unicode="&#xa3;" horiz-adv-x="1340" d="M-36 114q0 59 33 107.5t89.5 75.5t125.5 27q103 0 203 -65q19 41 30 81.5t16 89t5 112.5q0 142 -8 207h-273l27 99h236v76q0 131 42 244.5t115.5 193.5t177 125.5t222.5 45.5q73 0 133 -14.5t101.5 -41.5t64.5 -65.5t23 -84.5q0 -81 -46.5 -133t-118.5 -52q-16 0 -33 3 t-30.5 8.5t-19.5 11.5q18 13 34 58.5t16 84.5q0 125 -159 125q-139 0 -213 -99t-74 -284v-202h426l-28 -99h-400q0 -142 -47 -288t-123 -243q70 -19 161.5 -31t156.5 -12q66 0 122.5 14.5t107 44.5t99.5 77l18 -9q-85 -321 -378 -321q-54 0 -105.5 13t-111.5 41.5t-148 80.5 q-55 -60 -140.5 -97.5t-168.5 -37.5q-78 0 -119 34t-41 99zM94 137q0 -49 79 -49q97 0 183 75q-93 51 -157 51q-30 0 -54 -9.5t-37.5 -27t-13.5 -40.5z" />
<glyph unicode="&#xa4;" horiz-adv-x="1369" d="M182 926l70 69l142 -142q114 93 265 93q148 0 265 -93l142 142l69 -69l-142 -142q95 -117 95 -267q0 -149 -93 -265l140 -140l-69 -69l-140 139q-114 -92 -267 -92t-267 95l-140 -140l-67 67l139 140q-92 114 -92 265q0 153 92 267zM330 517q0 -88 44 -164t120 -120 t164.5 -44t165 44t121 120t44.5 164.5t-44.5 165t-121 121t-164.5 44.5q-67 0 -127.5 -26.5t-104.5 -71t-70.5 -105.5t-26.5 -128z" />
<glyph unicode="&#xa5;" horiz-adv-x="1503" d="M274 1435l21 79h553l-22 -79q-50 0 -80 -6.5t-45 -21.5t-15 -41q0 -33 16 -70l210 -508l274 400q27 40 37 55t23 38t16.5 37.5t3.5 32.5q0 40 -38.5 62t-107.5 22l22 79h486l-22 -79q-33 0 -56 -4.5t-41.5 -12.5t-39 -30t-38 -44.5t-49.5 -67.5l-367 -517h320l-27 -99 h-353l-49 -182h349l-28 -99h-346l-12 -49q-23 -85 -23 -137q0 -44 21 -69t63 -35t114 -10l-24 -79h-666l21 79q67 0 109.5 8.5t77 34.5t57 70.5t41.5 118.5l19 68h-345l28 99h342l47 182h-336l28 99h266l-193 468q-21 49 -36.5 81t-33 56.5t-32.5 37.5t-37.5 21t-45 10 t-57.5 2z" />
<glyph unicode="&#xa6;" horiz-adv-x="664" d="M240 -354v757h157v-757h-157zM240 718v757h157v-757h-157z" />
<glyph unicode="&#xa7;" horiz-adv-x="1220" d="M-2 -83q0 64 34.5 101t93.5 37q58 0 85 -35.5t27 -111.5q0 -158 94 -158q134 0 134 254q0 73 -21.5 180.5t-51.5 218.5t-60 223t-51 223.5t-21 190.5t15 149.5t41.5 126t63 102.5t81 81t93.5 60t102.5 41.5t106 23.5t105.5 8q88 0 163.5 -30t124 -90.5t48.5 -138.5 q0 -62 -30.5 -100t-79.5 -38q-21 0 -38.5 5.5t-34 18.5t-26 39.5t-9.5 63.5q0 11 3 37.5t3 39.5q0 114 -118 114q-26 0 -48 -11t-39.5 -33.5t-28 -60t-10.5 -86.5q0 -83 24.5 -195.5t59.5 -226t70 -229.5t59.5 -236.5t24.5 -215.5q0 -92 -21 -172t-57 -140t-86 -109 t-106 -81.5t-118.5 -54.5t-123 -32t-119.5 -10q-98 0 -177.5 28t-130 87.5t-50.5 141.5zM458 1158q0 -89 30 -239t65.5 -287.5t65.5 -296.5t30 -264q0 -115 -28 -186t-104 -125q271 67 271 415q0 94 -31.5 243.5t-69 282t-68.5 281t-31 239.5q0 47 1 74.5t5.5 60.5t14 56.5 t26.5 50t42 53.5q-114 -54 -166.5 -141t-52.5 -217z" />
<glyph unicode="&#xa8;" horiz-adv-x="634" d="M34 1362q0 20 3 32q12 49 53 81.5t90 32.5q41 0 65.5 -23.5t24.5 -60.5q0 -38 -22.5 -72t-57 -53t-70.5 -19q-39 0 -62.5 22.5t-23.5 59.5zM362 1362q0 20 4 32q11 49 52.5 81.5t90.5 32.5q40 0 64.5 -23.5t24.5 -60.5q0 -58 -46.5 -101t-103.5 -43q-39 0 -62.5 22.5 t-23.5 59.5z" />
<glyph unicode="&#xa9;" horiz-adv-x="1804" d="M179 756.5q0 157.5 59.5 301t160.5 247.5t241 166t294 62q157 0 298.5 -60.5t244.5 -164t163.5 -247t60.5 -302.5t-60.5 -303.5t-163 -248.5t-244 -165t-297.5 -61q-154 0 -294.5 61.5t-242 165.5t-161 247.5t-59.5 301zM274 756q0 -138 52 -264t140 -217.5t211 -145.5 t259 -54t260 54.5t214 146t143 218t53 265.5q0 112 -34 216t-96 187.5t-144.5 146t-185 96.5t-212.5 34q-136 0 -258.5 -54.5t-210.5 -146.5t-139.5 -218t-51.5 -264zM511 737q0 205 122 332.5t318 127.5q65 0 122.5 -19t125.5 -62l20 70h41l10 -258h-51q-24 89 -93 139.5 t-165 50.5q-132 0 -205 -98.5t-73 -274.5q0 -173 73 -264t210 -91q95 0 158 53.5t91 156.5h65q-15 -66 -42.5 -118.5t-68.5 -91.5t-99.5 -60t-129.5 -21q-196 0 -312.5 117t-116.5 311z" />
<glyph unicode="&#xaa;" horiz-adv-x="744" d="M253 1142q0 63 30.5 134t76.5 127t105.5 93t114.5 37q34 0 54.5 -15t31.5 -47l22 53h100l-55 -149q-27 -75 -50 -157.5t-23 -112.5q0 -28 19 -28q15 0 38 25t60 76l26 -30q-44 -69 -97.5 -110.5t-97.5 -41.5q-51 0 -51 62q0 10 4 55h-9q-27 -51 -76 -84t-101 -33 q-26 0 -48.5 10t-38.5 28t-25.5 46t-9.5 62zM375 1158q0 -39 14.5 -61t38.5 -22q40 0 86 60.5t75.5 140t29.5 135.5q0 62 -43 62q-32 0 -68.5 -33t-65 -80.5t-48 -103t-19.5 -98.5z" />
<glyph unicode="&#xab;" horiz-adv-x="938" d="M57 516l419 312l27 -42l-267 -270l120 -272l-47 -40zM394 516l418 312l27 -42l-267 -270l120 -272l-47 -40z" />
<glyph unicode="&#xac;" horiz-adv-x="1328" d="M189 615v98h901v-497h-99v399h-802z" />
<glyph unicode="&#xad;" horiz-adv-x="959" d="M159 488v163h608v-163h-608z" />
<glyph unicode="&#xae;" horiz-adv-x="1804" d="M179 756.5q0 157.5 59.5 301t160.5 247.5t241 166t294 62q157 0 298.5 -60.5t244.5 -164t163.5 -247t60.5 -302.5t-60.5 -303.5t-163 -248.5t-244 -165t-297.5 -61q-154 0 -294.5 61.5t-242 165.5t-161 247.5t-59.5 301zM274 756q0 -138 52 -264t140 -217.5t211 -145.5 t259 -54t260 54.5t214 146t143 218t53 265.5q0 112 -34 216t-96 187.5t-144.5 146t-185 96.5t-212.5 34q-136 0 -258.5 -54.5t-210.5 -146.5t-139.5 -218t-51.5 -264zM544 360v43q71 3 91 26t20 98v509q0 75 -17.5 98t-80.5 26v50h343q157 0 244 -57t87 -157 q0 -189 -212 -223l243 -295q15 -17 28.5 -29.5t29.5 -21.5t34 -14.5t40 -9.5v-43h-212l-272 336q-26 36 -48 46.5t-70 10.5v-220q0 -35 3 -55t10.5 -36.5t24.5 -24t41 -11t63 -3.5v-43h-390zM792 818h79q100 0 148.5 41t48.5 132q0 86 -39.5 122.5t-128.5 36.5h-90 q-18 0 -18 -17v-315z" />
<glyph unicode="&#xaf;" horiz-adv-x="608" d="M26 1380l25 98h531l-25 -98h-531z" />
<glyph unicode="&#xb0;" horiz-adv-x="672" d="M274 1298q0 97 69 166t166 69t166.5 -69t69.5 -166t-69.5 -166.5t-166.5 -69.5q-64 0 -118 31.5t-85.5 86t-31.5 118.5zM332 1298q0 -72 52.5 -125t124.5 -53q47 0 87.5 24.5t64 65.5t23.5 88q0 72 -51.5 123.5t-123.5 51.5t-124.5 -51.5t-52.5 -123.5z" />
<glyph unicode="&#xb1;" horiz-adv-x="1295" d="M179 187v98h920v-98h-920zM179 871v99h409v410h102v-410h409v-99h-409v-411h-102v411h-409z" />
<glyph unicode="&#xb2;" horiz-adv-x="553" d="M191 920l6 41q197 157 276 253.5t79 177.5q0 41 -23.5 65.5t-64.5 24.5q-46 0 -78 -28t-32 -68q0 -35 19.5 -55t54.5 -20q-15 -43 -68 -43q-43 0 -69 27t-26 71q0 69 63.5 119t151.5 50q53 0 92.5 -18t61 -51t21.5 -76q0 -81 -78 -171.5t-256 -213.5v-9h141q38 0 60 13 t44 47h38l-49 -136h-364z" />
<glyph unicode="&#xb3;" horiz-adv-x="563" d="M193 1034q0 29 14.5 54.5t39 40.5t52.5 15q13 0 25.5 -4.5t20 -13t9.5 -17.5q-29 0 -51 -24.5t-22 -58.5q0 -30 23.5 -46t67.5 -16q40 0 70.5 16t47.5 45.5t17 67.5q0 52 -25 87t-63 35q-9 0 -31 -2.5t-30 -2.5q-26 0 -26 15q0 13 9 21t24 11.5t34 7.5t38.5 7.5 t38.5 12.5t33.5 21.5t23.5 35.5t9 54q0 88 -70 88q-41 0 -68 -21t-27 -52q0 -24 13 -37.5t36 -13.5q-6 -13 -20.5 -21t-32.5 -8q-35 0 -55.5 20t-20.5 53q0 36 23 66t64.5 46.5t93.5 16.5q74 0 117.5 -33t43.5 -89q0 -54 -41.5 -100.5t-102.5 -59.5v-9q54 -13 84.5 -49.5 t30.5 -87.5q0 -80 -71.5 -136.5t-172.5 -56.5q-77 0 -125 33.5t-48 88.5z" />
<glyph unicode="&#xb4;" horiz-adv-x="540" d="M39 1280l256 234q71 65 131 65q34 0 54.5 -18.5t20.5 -50.5q0 -56 -100 -103l-269 -127h-93z" />
<glyph unicode="&#xb5;" horiz-adv-x="1345" d="M12 -413q0 29 12 81q24 95 105 366.5t152 492.5q47 144 64 210.5t17 104.5q0 41 -22 41q-48 0 -183 -165l-50 27q63 125 177.5 221t201.5 96q45 0 71.5 -29t26.5 -80q0 -45 -20 -113.5t-110 -330.5q-69 -204 -69 -305q0 -82 54 -82q49 0 118.5 72t140 194t122.5 261 l146 393h182l-146 -451q-65 -201 -89 -289t-24 -123q0 -51 34 -51q26 0 65 32t77.5 85t63.5 111l59 -30q-59 -146 -164.5 -245.5t-199.5 -99.5q-28 0 -47 10t-31.5 31.5t-18 55t-5.5 81.5q0 50 10 113l-6 5q-64 -143 -141 -219.5t-157 -76.5q-91 0 -124 70l-5 -2l-67 -405 q-13 -80 -44.5 -117.5t-87.5 -37.5q-46 0 -67 23.5t-21 74.5z" />
<glyph unicode="&#xb6;" horiz-adv-x="1077" d="M15 -362q0 49 26 78t71 29q31 0 49.5 -14.5t26.5 -34.5t16 -40.5t25 -35t45 -14.5q29 0 56 22t48 60.5t35 89.5l228 882q-37 -7 -84 -7q-55 0 -106 12t-97 38t-79.5 64.5t-53.5 94t-20 123.5q0 124 49 224t136.5 166.5t208 102.5t262.5 36h327l-20 -75q-34 0 -53.5 -2.5 t-41 -13.5t-34 -29.5t-28.5 -55.5t-30 -85.5t-33 -125.5l-248 -983q-40 -159 -81.5 -272.5t-84.5 -188t-95 -117.5t-106 -60t-125 -17q-81 0 -135 43t-54 106z" />
<glyph unicode="&#xb7;" horiz-adv-x="540" d="M120 539q0 54 37 91.5t91 37.5t91.5 -37.5t37.5 -91.5t-37.5 -91t-91.5 -37t-91 37t-37 91z" />
<glyph unicode="&#xb8;" horiz-adv-x="456" d="M-22 -387q0 27 10.5 49t29 34.5t41.5 12.5q13 0 22 -7.5t13.5 -19.5t8.5 -26.5t9 -28.5t12 -26t20.5 -19.5t32.5 -7.5q49 0 88 36t39 88q0 26 -15 44t-44.5 27t-71.5 9q-40 0 -68 -5l-3 7l168 244h103l-105 -165q99 0 151.5 -32t52.5 -92q0 -65 -44 -122.5t-113 -90.5 t-142 -33q-87 0 -141 35t-54 89z" />
<glyph unicode="&#xb9;" horiz-adv-x="536" d="M216 920l11 41q38 0 62 10t40 34t27 66l79 313q2 4 2 12q0 11 -13 11q-3 0 -41 -6.5t-72 -6.5l13 43q59 0 105.5 25t95.5 71h39l-100 -393q-20 -78 -20 -110q0 -22 7.5 -36.5t26 -23.5t49.5 -9l-10 -41h-301z" />
<glyph unicode="&#xba;" horiz-adv-x="664" d="M261 1193q0 62 26 124.5t67 109.5t96.5 76.5t112.5 29.5q80 0 130 -50.5t50 -135.5q0 -60 -26 -123.5t-68 -113.5t-97.5 -82t-110.5 -32q-75 0 -127.5 54.5t-52.5 142.5zM394 1154q0 -98 62 -98q29 0 59.5 32.5t52.5 81t36.5 107.5t14.5 109.5t-17 71t-50 20.5 q-39 0 -76.5 -52t-59.5 -127.5t-22 -144.5z" />
<glyph unicode="&#xbb;" horiz-adv-x="938" d="M47 244l266 272l-122 270l51 42l250 -312l-417 -312zM383 244l266 272l-122 270l51 42l250 -312l-417 -312z" />
<glyph unicode="&#xbc;" horiz-adv-x="1246" d="M-26 0l1225 1514h114l-1206 -1514h-133zM214 920l10 41q56 0 85 24t45 86l79 313q2 4 2 12q0 11 -13 11q-3 0 -40.5 -6.5t-72.5 -6.5l14 43q58 0 104.5 25t95.5 71h40l-101 -393q-19 -78 -19 -110q0 -33 18.5 -51t63.5 -18l-9 -41h-302zM645 224l10 39l365 350h46 l-87 -341h96l-11 -48h-96l-66 -224h-82l56 224h-231zM728 272h163l57 206l-6 2z" />
<glyph unicode="&#xbd;" horiz-adv-x="1289" d="M-24 0l1225 1514h114l-1207 -1514h-132zM216 920l11 41q38 0 62 10t40 34t27 66l79 313q2 4 2 12q0 11 -13 11q-3 0 -41 -6.5t-72 -6.5l13 43q59 0 105.5 25t95.5 71h39l-100 -393q-20 -78 -20 -110q0 -22 7.5 -36.5t26 -23.5t49.5 -9l-10 -41h-301zM672 0l7 41 q197 158 276 254t79 177q0 28 -10.5 48t-30.5 31.5t-47 11.5q-46 0 -78.5 -29t-32.5 -68q0 -36 20 -55t55 -19q-15 -44 -68 -44q-17 0 -31.5 4.5t-26.5 13t-20 20.5t-12.5 27.5t-4.5 32.5q0 46 28.5 85t78 61.5t107.5 22.5q79 0 127.5 -40t48.5 -106q0 -80 -77 -169.5 t-257 -215.5v-7h141q38 0 60 12.5t44 45.5h37l-49 -135h-364z" />
<glyph unicode="&#xbe;" horiz-adv-x="1296" d="M26 0l1225 1514h113l-1207 -1514h-131zM208 1034q0 44 32 77t75 33q20 0 36 -10.5t19 -24.5q-30 0 -51.5 -24.5t-21.5 -58.5q0 -30 23.5 -46t66.5 -16q61 0 98.5 35.5t37.5 93.5q0 52 -25 87t-63 35q-9 0 -31.5 -2.5t-30.5 -2.5q-25 0 -25 15q0 13 9 21t23.5 11.5 t33.5 7.5t39 7.5t39 12.5t34 21.5t24 35.5t9 54q0 88 -71 88q-20 0 -38 -5.5t-30 -15.5t-19 -23.5t-7 -28.5q0 -24 12.5 -37.5t36.5 -13.5q-6 -13 -20.5 -21t-32.5 -8q-35 0 -56 20t-21 53q0 56 51 92.5t129 36.5q74 0 118 -33t44 -89q0 -54 -42 -100.5t-102 -59.5v-9 q36 -8 61.5 -28t39 -47.5t13.5 -61.5q0 -80 -71 -136.5t-173 -56.5q-76 0 -124.5 33.5t-48.5 88.5zM696 224l10 39l365 350h45l-86 -341h97l-12 -48h-96l-66 -224h-82l57 224h-232zM779 272h163l56 206l-5 2z" />
<glyph unicode="&#xbf;" horiz-adv-x="923" d="M41 295q0 63 19.5 120.5t52.5 101t76 83.5t90 72t94.5 62t90.5 58.5t76 57t52.5 61t19.5 66.5q0 26 -10.5 43.5t-31 26.5t-49.5 9q-47 0 -82 -24.5t-64 -76.5l-52 32q74 153 217 153q86 0 132 -50t46 -144q0 -54 -15.5 -103t-42 -86.5t-61.5 -72.5t-75 -63t-81.5 -56.5 t-81.5 -53.5t-75 -53.5t-61.5 -57t-42 -64.5t-15.5 -75q0 -81 59.5 -133.5t152.5 -52.5q83 0 139 40.5t56 102.5q0 29 -14 45t-34.5 22.5t-40.5 13t-34 24t-14 49.5q0 45 28.5 70.5t78.5 25.5q80 0 134.5 -57t54.5 -141q0 -79 -48.5 -145.5t-132.5 -105t-182 -38.5 q-149 0 -239 86t-90 228zM488 1414q0 51 36 86t89 35q35 0 62.5 -15.5t43.5 -43.5t16 -62q0 -53 -36 -90t-87 -37q-52 0 -88 37.5t-36 89.5z" />
<glyph unicode="&#xc0;" d="M-212 0l19 79q93 0 195 80t283 295l906 1079h165l-273 -1207q-23 -103 -23 -151q0 -40 16 -60t54 -28t112 -8l-19 -79h-582l19 79q41 0 68 3t51 14t39 27t29 46t24.5 66.5t23.5 92.5l53 242h-423l-124 -129q-78 -82 -126 -135.5t-70.5 -84.5t-29 -46t-6.5 -29 q0 -19 7.5 -31.5t25.5 -20.5t46 -11.5t69 -3.5l-20 -79h-509zM610 668h356l161 610h-9zM916 1807q0 34 30 57t65 23q26 0 50.5 -7.5t46.5 -20.5t56 -37l216 -151h-118l-222 55q-58 13 -91 34t-33 47z" />
<glyph unicode="&#xc1;" d="M-212 0l19 79q93 0 195 80t283 295l906 1079h165l-273 -1207q-23 -103 -23 -151q0 -40 16 -60t54 -28t112 -8l-19 -79h-582l19 79q41 0 68 3t51 14t39 27t29 46t24.5 66.5t23.5 92.5l53 242h-423l-124 -129q-78 -82 -126 -135.5t-70.5 -84.5t-29 -46t-6.5 -29 q0 -19 7.5 -31.5t25.5 -20.5t46 -11.5t69 -3.5l-20 -79h-509zM610 668h356l161 610h-9zM1229 1671l295 151q68 35 109.5 50t79.5 15q28 0 43 -12.5t15 -36.5q0 -75 -175 -112l-249 -55h-118z" />
<glyph unicode="&#xc2;" d="M-212 0l19 79q93 0 195 80t283 295l906 1079h165l-273 -1207q-23 -103 -23 -151q0 -40 16 -60t54 -28t112 -8l-19 -79h-582l19 79q41 0 68 3t51 14t39 27t29 46t24.5 66.5t23.5 92.5l53 242h-423l-124 -129q-78 -82 -126 -135.5t-70.5 -84.5t-29 -46t-6.5 -29 q0 -19 7.5 -31.5t25.5 -20.5t46 -11.5t69 -3.5l-20 -79h-509zM610 668h356l161 610h-9zM1000 1673l272 214h216l157 -214h-88l-206 106l-261 -106h-90z" />
<glyph unicode="&#xc3;" d="M-212 0l19 79q93 0 195 80t283 295l906 1079h165l-273 -1207q-23 -103 -23 -151q0 -40 16 -60t54 -28t112 -8l-19 -79h-582l19 79q41 0 68 3t51 14t39 27t29 46t24.5 66.5t23.5 92.5l53 242h-423l-124 -129q-78 -82 -126 -135.5t-70.5 -84.5t-29 -46t-6.5 -29 q0 -19 7.5 -31.5t25.5 -20.5t46 -11.5t69 -3.5l-20 -79h-509zM610 668h356l161 610h-9zM1009 1664q17 98 74.5 160.5t131.5 62.5q40 0 85.5 -14t80 -31t75 -31t71.5 -14q33 0 53.5 19.5t33.5 63.5h65q-11 -94 -65.5 -163.5t-129.5 -69.5q-39 0 -87.5 15t-86.5 33t-81 32.5 t-71 14.5q-32 0 -51 -18t-32 -60h-66z" />
<glyph unicode="&#xc4;" d="M-212 0l19 79q93 0 195 80t283 295l906 1079h165l-273 -1207q-23 -103 -23 -151q0 -40 16 -60t54 -28t112 -8l-19 -79h-582l19 79q41 0 68 3t51 14t39 27t29 46t24.5 66.5t23.5 92.5l53 242h-423l-124 -129q-78 -82 -126 -135.5t-70.5 -84.5t-29 -46t-6.5 -29 q0 -19 7.5 -31.5t25.5 -20.5t46 -11.5t69 -3.5l-20 -79h-509zM610 668h356l161 610h-9zM1079 1760q0 20 4 29q5 21 17.5 39t29 31t37 20.5t40.5 7.5q35 0 56.5 -20.5t21.5 -52.5q0 -50 -41 -87.5t-90 -37.5q-34 0 -54.5 19.5t-20.5 51.5zM1437 1760q0 20 4 29 q10 41 46.5 69.5t79.5 28.5q33 0 55 -20.5t22 -52.5q0 -50 -41.5 -87.5t-88.5 -37.5q-35 0 -56 19.5t-21 51.5z" />
<glyph unicode="&#xc5;" d="M-212 0l19 79q93 0 195 80t283 295l906 1079h165l-273 -1207q-23 -103 -23 -151q0 -40 16 -60t54 -28t112 -8l-19 -79h-582l19 79q41 0 68 3t51 14t39 27t29 46t24.5 66.5t23.5 92.5l53 242h-423l-124 -129q-78 -82 -126 -135.5t-70.5 -84.5t-29 -46t-6.5 -29 q0 -19 7.5 -31.5t25.5 -20.5t46 -11.5t69 -3.5l-20 -79h-509zM610 668h356l161 610h-9zM1212 1726q0 62 51 111.5t116 49.5q44 0 70.5 -26t26.5 -70q0 -61 -51.5 -110t-116.5 -49q-29 0 -51 11.5t-33.5 33t-11.5 49.5zM1274 1740q0 -23 13 -35.5t36 -12.5q34 0 61 25.5 t27 57.5q0 23 -13.5 36.5t-37.5 13.5q-33 0 -59.5 -26.5t-26.5 -58.5z" />
<glyph unicode="&#xc6;" horiz-adv-x="2105" d="M-167 0l19 79q93 0 195 80t283 295l736 877q31 39 31 57q0 17 -21.5 27.5t-67.5 15t-123 4.5l21 79h1133v-398h-75q-25 93 -56 154t-72.5 95.5t-89 48.5t-112.5 14h-255l-135 -584h105q104 0 157.5 44t115.5 180h72l-118 -582h-77q5 59 5 102q0 89 -34.5 128.5 t-122.5 39.5h-122l-96 -430q-24 -108 -24 -151q0 -33 22.5 -52t75.5 -29t146 -10q151 0 249.5 33t165 103t121.5 195h93l-153 -415h-1139l20 79q40 0 67 3t51 14t39 27t29.5 46t24.5 66.5t23 92.5l53 242h-423l-124 -129q-78 -82 -126 -135.5t-70.5 -84.5t-29 -46t-6.5 -29 q0 -19 8 -31.5t25.5 -20.5t45.5 -11.5t69 -3.5l-20 -79h-509zM655 668h356l161 610h-8z" />
<glyph unicode="&#xc7;" horiz-adv-x="1430" d="M144 591q0 123 31.5 243t86.5 223t133.5 191.5t170 151t198.5 98t215 35.5q186 0 354 -117l72 98h73l-90 -494h-75q-14 213 -91 312t-227 99q-127 0 -241 -65.5t-195.5 -177.5t-129.5 -268t-48 -331q0 -241 96.5 -364t283.5 -123q95 0 177 34t155 103.5t143 179.5l72 -47 q-81 -125 -158.5 -205t-162 -124t-183.5 -56l-80 -128q66 0 111.5 -14t69 -42t23.5 -68q0 -49 -26 -95t-68 -78.5t-96 -52.5t-109 -20q-86 0 -140 35t-54 89q0 27 10.5 49t29 34.5t41.5 12.5q13 0 22 -7.5t13.5 -19.5t8.5 -26.5t8.5 -28.5t11.5 -26t20.5 -19.5t32.5 -7.5 q49 0 88.5 36t39.5 88q0 39 -34 59.5t-98 20.5q-40 0 -68 -5l-2 7l137 201q-256 7 -404 170.5t-148 439.5z" />
<glyph unicode="&#xc8;" horiz-adv-x="1454" d="M-51 0l21 79q67 0 107.5 9t71 37t48.5 70t37 116l228 867q28 108 28 153q0 62 -43.5 83t-153.5 21l22 79h1073v-398h-75q-25 93 -56 154t-72.5 95.5t-89 48.5t-112.5 14h-255l-154 -584h124q104 0 157.5 44t116.5 180h72l-118 -582h-78q5 59 5 102q0 89 -34.5 128.5 t-122.5 39.5h-148l-111 -422q-18 -68 -18 -110q0 -72 64.5 -106t214.5 -34q151 0 249.5 33t165 103t122.5 195h92l-153 -415h-1225zM684 1807q0 23 15 42t36 28.5t44 9.5q37 0 70.5 -15t82.5 -50l216 -151h-118l-222 55q-58 13 -91 34t-33 47z" />
<glyph unicode="&#xc9;" horiz-adv-x="1454" d="M-51 0l21 79q67 0 107.5 9t71 37t48.5 70t37 116l228 867q28 108 28 153q0 62 -43.5 83t-153.5 21l22 79h1073v-398h-75q-25 93 -56 154t-72.5 95.5t-89 48.5t-112.5 14h-255l-154 -584h124q104 0 157.5 44t116.5 180h72l-118 -582h-78q5 59 5 102q0 89 -34.5 128.5 t-122.5 39.5h-148l-111 -422q-18 -68 -18 -110q0 -72 64.5 -106t214.5 -34q151 0 249.5 33t165 103t122.5 195h92l-153 -415h-1225zM743 1671l295 151q69 35 110.5 50t78.5 15q28 0 43 -12.5t15 -36.5q0 -75 -174 -112l-250 -55h-118z" />
<glyph unicode="&#xca;" horiz-adv-x="1454" d="M-51 0l21 79q67 0 107.5 9t71 37t48.5 70t37 116l228 867q28 108 28 153q0 62 -43.5 83t-153.5 21l22 79h1073v-398h-75q-25 93 -56 154t-72.5 95.5t-89 48.5t-112.5 14h-255l-154 -584h124q104 0 157.5 44t116.5 180h72l-118 -582h-78q5 59 5 102q0 89 -34.5 128.5 t-122.5 39.5h-148l-111 -422q-18 -68 -18 -110q0 -72 64.5 -106t214.5 -34q151 0 249.5 33t165 103t122.5 195h92l-153 -415h-1225zM617 1673l272 214h216l157 -214h-88l-206 106l-262 -106h-89z" />
<glyph unicode="&#xcb;" horiz-adv-x="1454" d="M-51 0l21 79q67 0 107.5 9t71 37t48.5 70t37 116l228 867q28 108 28 153q0 62 -43.5 83t-153.5 21l22 79h1073v-398h-75q-25 93 -56 154t-72.5 95.5t-89 48.5t-112.5 14h-255l-154 -584h124q104 0 157.5 44t116.5 180h72l-118 -582h-78q5 59 5 102q0 89 -34.5 128.5 t-122.5 39.5h-148l-111 -422q-18 -68 -18 -110q0 -72 64.5 -106t214.5 -34q151 0 249.5 33t165 103t122.5 195h92l-153 -415h-1225zM688 1760q0 20 4 29q10 41 46.5 69.5t77.5 28.5q35 0 57 -20.5t22 -52.5q0 -50 -41.5 -87.5t-90.5 -37.5q-33 0 -54 19.5t-21 51.5z M1046 1760q0 20 4 29q10 41 46.5 69.5t79.5 28.5q34 0 55.5 -20.5t21.5 -52.5q0 -50 -41.5 -87.5t-89.5 -37.5q-35 0 -55.5 19.5t-20.5 51.5z" />
<glyph unicode="&#xcc;" horiz-adv-x="825" d="M-55 0l21 79q62 0 101 9t71 35t53.5 70.5t40.5 117.5l230 869q30 113 30 161q0 58 -42 76t-153 18l22 79h638l-21 -79q-45 0 -76.5 -5t-59.5 -19.5t-47 -36t-38 -59.5t-34 -85t-34 -117l-206 -783q-24 -88 -24 -137q0 -65 41 -89.5t138 -24.5l-24 -79h-627zM405 1807 q0 35 29.5 57.5t64.5 22.5q38 0 71.5 -15t82.5 -50l216 -151h-118l-222 55q-58 13 -91 34t-33 47z" />
<glyph unicode="&#xcd;" horiz-adv-x="825" d="M-55 0l21 79q62 0 101 9t71 35t53.5 70.5t40.5 117.5l230 869q30 113 30 161q0 58 -42 76t-153 18l22 79h638l-21 -79q-45 0 -76.5 -5t-59.5 -19.5t-47 -36t-38 -59.5t-34 -85t-34 -117l-206 -783q-24 -88 -24 -137q0 -65 41 -89.5t138 -24.5l-24 -79h-627zM464 1671 l295 151q70 36 110.5 50.5t78.5 14.5q28 0 43.5 -12.5t15.5 -36.5q0 -74 -176 -112l-249 -55h-118z" />
<glyph unicode="&#xce;" horiz-adv-x="825" d="M-55 0l21 79q62 0 101 9t71 35t53.5 70.5t40.5 117.5l230 869q30 113 30 161q0 58 -42 76t-153 18l22 79h638l-21 -79q-45 0 -76.5 -5t-59.5 -19.5t-47 -36t-38 -59.5t-34 -85t-34 -117l-206 -783q-24 -88 -24 -137q0 -65 41 -89.5t138 -24.5l-24 -79h-627zM354 1673 l271 214h217l156 -214h-88l-206 106l-261 -106h-89z" />
<glyph unicode="&#xcf;" horiz-adv-x="825" d="M-55 0l21 79q62 0 101 9t71 35t53.5 70.5t40.5 117.5l230 869q30 113 30 161q0 58 -42 76t-153 18l22 79h638l-21 -79q-45 0 -76.5 -5t-59.5 -19.5t-47 -36t-38 -59.5t-34 -85t-34 -117l-206 -783q-24 -88 -24 -137q0 -65 41 -89.5t138 -24.5l-24 -79h-627zM441 1760 q0 20 3 29q11 41 47 69.5t77 28.5q35 0 57 -20.5t22 -52.5q0 -50 -41 -87.5t-90 -37.5q-23 0 -40 9t-26 25t-9 37zM798 1760q0 17 5 29q10 41 46.5 69.5t78.5 28.5q34 0 55.5 -20.5t21.5 -52.5q0 -50 -41.5 -87.5t-88.5 -37.5q-35 0 -56 19.5t-21 51.5z" />
<glyph unicode="&#xd0;" horiz-adv-x="1649" d="M-51 0l21 79q45 0 75 3t57.5 12.5t44.5 24.5t34 42t29 62t26 88l106 409h-183l26 98h183l94 362q2 9 10.5 35t15 48t12 48t5.5 42q0 27 -15.5 45t-43 25t-50.5 9.5t-54 2.5h-38l26 79h533q313 0 495 -152q108 -88 161 -214.5t53 -269.5q0 -116 -35 -235.5t-96 -222.5 t-141 -182q-130 -129 -294.5 -183.5t-368.5 -54.5h-688zM422 232q0 -146 197 -146q107 0 202 27t167 73t132 109.5t101 136t69.5 152.5t41.5 159t13 156q0 162 -60 279t-171.5 177.5t-265.5 60.5q-32 0 -52.5 -3.5t-39.5 -14t-31 -30.5t-21 -53l-134 -497h224l-25 -98h-227 l-70 -266q-50 -184 -50 -222z" />
<glyph unicode="&#xd1;" horiz-adv-x="1655" d="M-17 0l21 79q90 0 164.5 65.5t101.5 166.5l231 873q8 29 8 60q0 61 -36.5 104t-101 64.5t-151.5 22.5l24 79h462l491 -1127h8l209 797q10 43 10 73q0 81 -47 129t-118 49l23 79h504l-22 -79q-49 0 -95 -30t-79.5 -83t-51.5 -119l-319 -1203h-79l-515 1184h-8l-223 -854 q-13 -51 -13 -84q0 -80 49.5 -123t137.5 -44l-24 -79h-561zM759 1664q11 65 41 116t73 79t93 28q39 0 85 -14t80 -31t75 -31t72 -14q32 0 52.5 19.5t33.5 63.5h65q-10 -94 -64.5 -163.5t-129.5 -69.5q-39 0 -88 15t-87 33t-80.5 32.5t-71.5 14.5q-22 0 -37 -8t-26 -25 t-19 -45h-67z" />
<glyph unicode="&#xd2;" horiz-adv-x="1611" d="M146 596q0 123 31.5 243t87.5 223t135 190.5t172 149t201.5 96.5t219.5 35q251 0 400 -165.5t149 -444.5q0 -125 -31.5 -245.5t-87 -223.5t-134 -191.5t-171 -150t-200 -96.5t-218.5 -35q-166 0 -292 76t-194 215.5t-68 323.5zM383 589q0 -248 88 -375.5t257 -127.5 q97 0 186 43t159.5 122.5t122.5 188t80 246t28 289.5q0 235 -76 345.5t-235 110.5q-126 0 -239 -65.5t-194.5 -177.5t-129 -268t-47.5 -331zM765 1807q0 23 14.5 42t36 28.5t43.5 9.5q38 0 71.5 -15t82.5 -50l216 -151h-118l-222 55q-58 13 -91 34t-33 47z" />
<glyph unicode="&#xd3;" horiz-adv-x="1611" d="M146 596q0 123 31.5 243t87.5 223t135 190.5t172 149t201.5 96.5t219.5 35q251 0 400 -165.5t149 -444.5q0 -125 -31.5 -245.5t-87 -223.5t-134 -191.5t-171 -150t-200 -96.5t-218.5 -35q-166 0 -292 76t-194 215.5t-68 323.5zM383 589q0 -248 88 -375.5t257 -127.5 q97 0 186 43t159.5 122.5t122.5 188t80 246t28 289.5q0 235 -76 345.5t-235 110.5q-126 0 -239 -65.5t-194.5 -177.5t-129 -268t-47.5 -331zM824 1671l294 151q69 35 110.5 50t79.5 15q28 0 43 -12.5t15 -36.5q0 -75 -175 -112l-249 -55h-118z" />
<glyph unicode="&#xd4;" horiz-adv-x="1611" d="M146 596q0 123 31.5 243t87.5 223t135 190.5t172 149t201.5 96.5t219.5 35q251 0 400 -165.5t149 -444.5q0 -125 -31.5 -245.5t-87 -223.5t-134 -191.5t-171 -150t-200 -96.5t-218.5 -35q-166 0 -292 76t-194 215.5t-68 323.5zM383 589q0 -248 88 -375.5t257 -127.5 q97 0 186 43t159.5 122.5t122.5 188t80 246t28 289.5q0 235 -76 345.5t-235 110.5q-126 0 -239 -65.5t-194.5 -177.5t-129 -268t-47.5 -331zM730 1673l270 214h217l158 -214h-90l-206 106l-261 -106h-88z" />
<glyph unicode="&#xd5;" horiz-adv-x="1611" d="M146 596q0 123 31.5 243t87.5 223t135 190.5t172 149t201.5 96.5t219.5 35q251 0 400 -165.5t149 -444.5q0 -125 -31.5 -245.5t-87 -223.5t-134 -191.5t-171 -150t-200 -96.5t-218.5 -35q-166 0 -292 76t-194 215.5t-68 323.5zM383 589q0 -248 88 -375.5t257 -127.5 q97 0 186 43t159.5 122.5t122.5 188t80 246t28 289.5q0 235 -76 345.5t-235 110.5q-126 0 -239 -65.5t-194.5 -177.5t-129 -268t-47.5 -331zM749 1664q16 98 73.5 160.5t132.5 62.5q40 0 85.5 -14t80 -31t75.5 -31t72 -14q22 0 38 8.5t28 26.5t21 48h65q-7 -60 -33 -112.5 t-69 -86.5t-93 -34q-39 0 -88 15t-86.5 33t-80.5 32.5t-71 14.5q-22 0 -37.5 -8t-26 -25t-19.5 -45h-67z" />
<glyph unicode="&#xd6;" horiz-adv-x="1611" d="M146 596q0 123 31.5 243t87.5 223t135 190.5t172 149t201.5 96.5t219.5 35q251 0 400 -165.5t149 -444.5q0 -125 -31.5 -245.5t-87 -223.5t-134 -191.5t-171 -150t-200 -96.5t-218.5 -35q-166 0 -292 76t-194 215.5t-68 323.5zM383 589q0 -248 88 -375.5t257 -127.5 q97 0 186 43t159.5 122.5t122.5 188t80 246t28 289.5q0 235 -76 345.5t-235 110.5q-126 0 -239 -65.5t-194.5 -177.5t-129 -268t-47.5 -331zM818 1760q0 20 4 29q6 27 25 49.5t45.5 35.5t53.5 13q34 0 56 -20.5t22 -52.5q0 -50 -41 -87.5t-90 -37.5q-34 0 -54.5 19.5 t-20.5 51.5zM1176 1760q0 20 4 29q10 41 46.5 69.5t79.5 28.5q33 0 54.5 -20.5t21.5 -52.5q0 -50 -41 -87.5t-88 -37.5q-35 0 -56 19.5t-21 51.5z" />
<glyph unicode="&#xd7;" horiz-adv-x="1067" d="M161 362l305 304l-303 304l69 68l303 -303l304 305l73 -72l-304 -306l302 -302l-68 -69l-303 302l-305 -304z" />
<glyph unicode="&#xd8;" horiz-adv-x="1611" d="M92 -122l208 266q-74 81 -114 196.5t-40 255.5q0 123 31.5 243t87.5 223t135 190.5t172 149t201.5 96.5t219.5 35q191 0 326 -100l154 195h135l-210 -266q144 -166 144 -439q0 -125 -31.5 -245.5t-87 -223.5t-134 -191.5t-171 -150t-200 -96.5t-218.5 -35q-189 0 -321 92 l-152 -195h-135zM383 589q0 -177 43 -289l803 1019q-77 112 -236 112q-126 0 -239 -65.5t-194.5 -177.5t-129 -268t-47.5 -331zM480 201q89 -115 248 -115q97 0 186 43t159.5 122.5t122.5 188t80 246t28 289.5q0 129 -28 235z" />
<glyph unicode="&#xd9;" horiz-adv-x="1587" d="M224 431q0 117 39 263l131 484q25 98 25 151q0 59 -41.5 82.5t-143.5 23.5l25 79h628l-22 -79q-50 0 -81.5 -3.5t-60.5 -17.5t-46.5 -33.5t-36 -59.5t-32.5 -86.5t-34 -123.5l-128 -494q-26 -101 -26 -184q0 -159 82.5 -251t234.5 -92q76 0 141.5 24t116 65.5t94 103 t75 131.5t59.5 156q57 177 107 425t50 322q0 109 -200 118l23 79h517l-24 -79q-34 0 -57 -3.5t-44 -14.5t-35.5 -29t-29 -49.5t-26 -73t-24.5 -101.5l-84 -393q-171 -790 -674 -790q-247 0 -372.5 116t-125.5 334zM782 1807q0 35 30 57.5t64 22.5q26 0 51 -7.5t47.5 -20.5 t55.5 -37l216 -151h-117l-223 55q-58 13 -91 34t-33 47z" />
<glyph unicode="&#xda;" horiz-adv-x="1587" d="M224 431q0 117 39 263l131 484q25 98 25 151q0 59 -41.5 82.5t-143.5 23.5l25 79h628l-22 -79q-50 0 -81.5 -3.5t-60.5 -17.5t-46.5 -33.5t-36 -59.5t-32.5 -86.5t-34 -123.5l-128 -494q-26 -101 -26 -184q0 -159 82.5 -251t234.5 -92q76 0 141.5 24t116 65.5t94 103 t75 131.5t59.5 156q57 177 107 425t50 322q0 109 -200 118l23 79h517l-24 -79q-34 0 -57 -3.5t-44 -14.5t-35.5 -29t-29 -49.5t-26 -73t-24.5 -101.5l-84 -393q-171 -790 -674 -790q-247 0 -372.5 116t-125.5 334zM842 1671l295 151q46 24 75 37t58 20.5t55 7.5 q28 0 43.5 -12.5t15.5 -36.5q0 -75 -174 -112l-251 -55h-117z" />
<glyph unicode="&#xdb;" horiz-adv-x="1587" d="M224 431q0 117 39 263l131 484q25 98 25 151q0 59 -41.5 82.5t-143.5 23.5l25 79h628l-22 -79q-50 0 -81.5 -3.5t-60.5 -17.5t-46.5 -33.5t-36 -59.5t-32.5 -86.5t-34 -123.5l-128 -494q-26 -101 -26 -184q0 -159 82.5 -251t234.5 -92q76 0 141.5 24t116 65.5t94 103 t75 131.5t59.5 156q57 177 107 425t50 322q0 109 -200 118l23 79h517l-24 -79q-34 0 -57 -3.5t-44 -14.5t-35.5 -29t-29 -49.5t-26 -73t-24.5 -101.5l-84 -393q-171 -790 -674 -790q-247 0 -372.5 116t-125.5 334zM715 1673l272 214h216l157 -214h-88l-206 106l-262 -106 h-89z" />
<glyph unicode="&#xdc;" horiz-adv-x="1587" d="M224 431q0 117 39 263l131 484q25 98 25 151q0 59 -41.5 82.5t-143.5 23.5l25 79h628l-22 -79q-50 0 -81.5 -3.5t-60.5 -17.5t-46.5 -33.5t-36 -59.5t-32.5 -86.5t-34 -123.5l-128 -494q-26 -101 -26 -184q0 -159 82.5 -251t234.5 -92q76 0 141.5 24t116 65.5t94 103 t75 131.5t59.5 156q57 177 107 425t50 322q0 109 -200 118l23 79h517l-24 -79q-34 0 -57 -3.5t-44 -14.5t-35.5 -29t-29 -49.5t-26 -73t-24.5 -101.5l-84 -393q-171 -790 -674 -790q-247 0 -372.5 116t-125.5 334zM786 1760q0 20 4 29q10 41 46.5 69.5t77.5 28.5 q23 0 41 -9.5t28 -26t10 -37.5q0 -50 -41.5 -87.5t-90.5 -37.5q-33 0 -54 19.5t-21 51.5zM1144 1760q0 20 4 29q10 41 46.5 69.5t79.5 28.5q33 0 55 -20.5t22 -52.5q0 -33 -20 -62.5t-50 -46t-60 -16.5q-35 0 -56 19.5t-21 51.5z" />
<glyph unicode="&#xdd;" horiz-adv-x="1354" d="M177 1435l22 79h552l-21 -79q-50 0 -80.5 -6.5t-45.5 -21.5t-15 -41q0 -31 17 -70l210 -508l274 400q27 40 37 55t23 38t16.5 37.5t3.5 32.5q0 40 -38.5 62t-107.5 22l22 79h485l-21 -79q-33 0 -56 -4.5t-42 -13t-39 -29.5t-38 -44t-50 -68l-420 -592l-92 -354 q-24 -88 -24 -137q0 -44 21 -69t63 -35t115 -10l-24 -79h-667l22 79q67 0 109.5 8.5t77 34.5t57 70.5t41.5 118.5l91 349l-236 567q-18 42 -32 71t-28 52.5t-28.5 38t-29 24.5t-34.5 14.5t-40 6t-50 1.5zM718 1671l295 151q69 36 110 50.5t78 14.5q28 0 43.5 -12.5 t15.5 -36.5q0 -74 -175 -112l-250 -55h-117z" />
<glyph unicode="&#xde;" horiz-adv-x="1385" d="M-71 0l22 75q48 1 80.5 5t60.5 14.5t45.5 25t34 40.5t28 58t24.5 81l245 916q23 82 23 126q0 55 -37 75t-142 23l21 75h694l-21 -75q-63 0 -102.5 -2.5t-74.5 -12.5t-55.5 -24.5t-40 -43t-32 -62.5t-28.5 -89l-10 -33h214q475 0 475 -337q0 -148 -89.5 -259t-256 -170.5 t-388.5 -59.5h-176l-10 -37q-22 -84 -22 -127t21.5 -65.5t70 -32t140.5 -9.5l-22 -75h-692zM469 444h141q225 0 359 117.5t134 314.5q0 110 -57.5 156.5t-192.5 46.5h-181q-33 0 -41 -33z" />
<glyph unicode="&#xdf;" horiz-adv-x="1152" d="M-444 -360q0 47 26.5 76t69.5 29q30 0 48.5 -14.5t27 -34.5t16.5 -40.5t23.5 -35t41.5 -14.5q47 0 85 45.5t59 126.5l342 1374q56 228 184 354t305 126q154 0 242.5 -77.5t88.5 -211.5q0 -155 -107.5 -274.5t-274.5 -150.5l-3 -10q93 0 162 -41.5t105.5 -118.5t36.5 -182 q0 -89 -28.5 -177t-79.5 -160.5t-117 -129t-145.5 -87.5t-160.5 -31q-55 0 -95 15t-61 42.5t-21 66.5q0 33 15 63t39.5 47t52.5 17q26 0 38 -16.5t14.5 -40t5.5 -47.5t18.5 -40.5t47.5 -16.5q71 0 134 65t100 175t37 235q0 81 -18 139t-56 96.5t-95.5 57t-137.5 18.5l25 100 q140 0 227 71t129 216q2 13 5 30.5t5 30t4 27t2 26.5q0 62 -21.5 100.5t-64.5 56.5t-110 18q-86 0 -138 -82.5t-102 -286.5l-246 -1020q-85 -352 -194.5 -503.5t-277.5 -151.5q-97 0 -152.5 40t-55.5 111z" />
<glyph unicode="&#xe0;" horiz-adv-x="1120" d="M19 265q0 88 26.5 184.5t71.5 183.5t107 166t130 137t143 92t144 34q65 0 106.5 -31t66.5 -99l41 110h164l-113 -301q-36 -96 -70 -212.5t-54.5 -212t-20.5 -137.5q0 -57 37 -57q49 0 197 204l51 -41q-80 -144 -176 -224t-186 -80q-95 0 -95 147q0 15 7 104l-8 2 q-58 -110 -158.5 -181.5t-197.5 -71.5q-98 0 -155.5 76t-57.5 208zM206 276q0 -47 13.5 -82.5t39 -54.5t58.5 -19q52 0 112.5 51t113 133.5t96.5 178.5t69 194t25 173q0 34 -9.5 58.5t-28 37.5t-42.5 13q-73 0 -154.5 -69t-145 -170.5t-105.5 -223t-42 -220.5zM480 1494 q0 38 29 61.5t67 23.5q60 0 114 -65l193 -234h-93l-233 127q-77 43 -77 87z" />
<glyph unicode="&#xe1;" horiz-adv-x="1120" d="M19 265q0 88 26.5 184.5t71.5 183.5t107 166t130 137t143 92t144 34q65 0 106.5 -31t66.5 -99l41 110h164l-113 -301q-36 -96 -70 -212.5t-54.5 -212t-20.5 -137.5q0 -57 37 -57q49 0 197 204l51 -41q-80 -144 -176 -224t-186 -80q-95 0 -95 147q0 15 7 104l-8 2 q-58 -110 -158.5 -181.5t-197.5 -71.5q-98 0 -155.5 76t-57.5 208zM206 276q0 -47 13.5 -82.5t39 -54.5t58.5 -19q52 0 112.5 51t113 133.5t96.5 178.5t69 194t25 173q0 34 -9.5 58.5t-28 37.5t-42.5 13q-73 0 -154.5 -69t-145 -170.5t-105.5 -223t-42 -220.5zM550 1280 l256 234q71 65 132 65q34 0 54.5 -18.5t20.5 -50.5q0 -55 -101 -103l-269 -127h-93z" />
<glyph unicode="&#xe2;" horiz-adv-x="1120" d="M19 265q0 88 26.5 184.5t71.5 183.5t107 166t130 137t143 92t144 34q65 0 106.5 -31t66.5 -99l41 110h164l-113 -301q-36 -96 -70 -212.5t-54.5 -212t-20.5 -137.5q0 -57 37 -57q49 0 197 204l51 -41q-80 -144 -176 -224t-186 -80q-95 0 -95 147q0 15 7 104l-8 2 q-58 -110 -158.5 -181.5t-197.5 -71.5q-98 0 -155.5 76t-57.5 208zM206 276q0 -47 13.5 -82.5t39 -54.5t58.5 -19q52 0 112.5 51t113 133.5t96.5 178.5t69 194t25 173q0 34 -9.5 58.5t-28 37.5t-42.5 13q-73 0 -154.5 -69t-145 -170.5t-105.5 -223t-42 -220.5zM370 1280 l302 253h178l165 -253h-89l-198 134l-270 -134h-88z" />
<glyph unicode="&#xe3;" horiz-adv-x="1120" d="M19 265q0 88 26.5 184.5t71.5 183.5t107 166t130 137t143 92t144 34q65 0 106.5 -31t66.5 -99l41 110h164l-113 -301q-36 -96 -70 -212.5t-54.5 -212t-20.5 -137.5q0 -57 37 -57q49 0 197 204l51 -41q-80 -144 -176 -224t-186 -80q-95 0 -95 147q0 15 7 104l-8 2 q-58 -110 -158.5 -181.5t-197.5 -71.5q-98 0 -155.5 76t-57.5 208zM206 276q0 -47 13.5 -82.5t39 -54.5t58.5 -19q52 0 112.5 51t113 133.5t96.5 178.5t69 194t25 173q0 34 -9.5 58.5t-28 37.5t-42.5 13q-73 0 -154.5 -69t-145 -170.5t-105.5 -223t-42 -220.5zM392 1298 q16 99 73.5 161.5t132.5 62.5q62 0 169 -47q39 -17 64 -26.5t43.5 -13.5t35.5 -4q33 0 53.5 19.5t32.5 63.5h66q-2 -20 -8 -42t-14 -43t-19 -41t-23 -35q-53 -71 -131 -71q-26 0 -60.5 10t-104.5 39q-121 46 -162 46q-32 0 -50.5 -18t-31.5 -61h-66z" />
<glyph unicode="&#xe4;" horiz-adv-x="1120" d="M19 265q0 88 26.5 184.5t71.5 183.5t107 166t130 137t143 92t144 34q65 0 106.5 -31t66.5 -99l41 110h164l-113 -301q-36 -96 -70 -212.5t-54.5 -212t-20.5 -137.5q0 -57 37 -57q49 0 197 204l51 -41q-80 -144 -176 -224t-186 -80q-95 0 -95 147q0 15 7 104l-8 2 q-58 -110 -158.5 -181.5t-197.5 -71.5q-98 0 -155.5 76t-57.5 208zM206 276q0 -47 13.5 -82.5t39 -54.5t58.5 -19q52 0 112.5 51t113 133.5t96.5 178.5t69 194t25 173q0 34 -9.5 58.5t-28 37.5t-42.5 13q-73 0 -154.5 -69t-145 -170.5t-105.5 -223t-42 -220.5zM446 1362 q0 20 4 32q12 49 53 81.5t90 32.5q41 0 65.5 -23.5t24.5 -60.5q0 -58 -47 -101t-103 -43q-26 0 -46 10t-30.5 29t-10.5 43zM775 1362q0 20 4 32q11 49 52.5 81.5t91.5 32.5q40 0 64 -23.5t24 -60.5q0 -58 -47 -101t-103 -43q-39 0 -62.5 22.5t-23.5 59.5z" />
<glyph unicode="&#xe5;" horiz-adv-x="1120" d="M19 265q0 88 26.5 184.5t71.5 183.5t107 166t130 137t143 92t144 34q65 0 106.5 -31t66.5 -99l41 110h164l-113 -301q-36 -96 -70 -212.5t-54.5 -212t-20.5 -137.5q0 -57 37 -57q49 0 197 204l51 -41q-80 -144 -176 -224t-186 -80q-95 0 -95 147q0 15 7 104l-8 2 q-58 -110 -158.5 -181.5t-197.5 -71.5q-98 0 -155.5 76t-57.5 208zM206 276q0 -47 13.5 -82.5t39 -54.5t58.5 -19q52 0 112.5 51t113 133.5t96.5 178.5t69 194t25 173q0 34 -9.5 58.5t-28 37.5t-42.5 13q-73 0 -154.5 -69t-145 -170.5t-105.5 -223t-42 -220.5zM550 1411 q0 84 67 152.5t156 68.5q61 0 97 -33.5t36 -88.5q0 -89 -68.5 -155t-156.5 -66q-60 0 -95.5 33.5t-35.5 88.5zM633 1435q0 -30 19.5 -48.5t53.5 -18.5q21 0 42 9.5t37 25t26.5 37.5t10.5 46q0 28 -19 45.5t-50 17.5q-45 0 -82.5 -33.5t-37.5 -80.5z" />
<glyph unicode="&#xe6;" horiz-adv-x="1486" d="M19 265q0 88 26.5 184.5t71.5 183.5t107 166t130 137t143 92t144 34q65 0 106.5 -31t66.5 -99l55 149h163l-59 -145l6 -4q51 67 121 98.5t146 31.5q94 0 154.5 -48t60.5 -123q0 -90 -87 -187t-235.5 -175.5t-320.5 -117.5q-8 -50 -8 -109q0 -104 39 -159t112 -55 q72 0 150.5 57t145.5 157l62 -41q-56 -92 -122.5 -154.5t-141.5 -94t-156 -31.5q-121 0 -194 68.5t-86 194.5q-68 -113 -179 -188t-210 -75q-97 0 -154 76t-57 208zM206 283q0 -38 7.5 -68.5t21.5 -51.5t34.5 -32t45.5 -11q68 0 144 70t136 174.5t99 233.5t39 241 q0 120 -86 120q-52 0 -114 -43t-118.5 -116t-104 -159.5t-76 -182t-28.5 -175.5zM837 499q190 52 314.5 161.5t124.5 226.5q0 83 -69 83q-67 0 -141 -68t-134.5 -175.5t-94.5 -227.5z" />
<glyph unicode="&#xe7;" horiz-adv-x="866" d="M28 300q0 86 25.5 178.5t68.5 175.5t102.5 158.5t125 130t138.5 87t141 32.5q93 0 155 -51t62 -128q0 -48 -29.5 -79t-73.5 -31q-29 0 -52.5 13t-36.5 35.5t-13 49.5q0 19 8 41.5t8 29.5q0 28 -47 28q-64 0 -132.5 -61.5t-121.5 -156.5t-87.5 -217t-34.5 -236 q0 -95 36.5 -149t101.5 -54q68 0 150.5 73.5t141.5 186.5l69 -39q-64 -130 -148 -212.5t-180 -110.5l-86 -135q99 0 151.5 -32t52.5 -92q0 -65 -44 -122.5t-113 -90.5t-142 -33q-87 0 -140.5 35t-53.5 89q0 41 23 68.5t57 27.5q14 0 22.5 -7.5t13.5 -19.5t9 -26.5t9 -28.5 t12 -26t20.5 -19.5t31.5 -7.5q50 0 89 36t39 88q0 39 -34.5 59.5t-97.5 20.5q-40 0 -68 -5l-2 7l137 201q-120 7 -191.5 93.5t-71.5 225.5z" />
<glyph unicode="&#xe8;" horiz-adv-x="895" d="M28 300q0 89 26 182.5t70.5 176.5t106 157.5t130 128.5t146 85.5t150.5 31.5q46 0 86 -13t68 -35.5t44 -54t16 -68.5q0 -90 -87 -187t-235 -175.5t-321 -117.5q-8 -56 -8 -109q0 -69 17.5 -117t51.5 -72.5t83 -24.5q71 0 149.5 57t144.5 157l64 -41q-84 -138 -191 -209 t-230 -71q-134 0 -207.5 83.5t-73.5 235.5zM248 499q190 52 314 161.5t124 226.5q0 83 -69 83q-66 0 -140.5 -68t-135 -175.5t-93.5 -227.5zM460 1494q0 15 5.5 29t15 24t22 17.5t26.5 11t28 3.5q59 0 113 -65l193 -234h-92l-234 127q-77 43 -77 87z" />
<glyph unicode="&#xe9;" horiz-adv-x="895" d="M28 300q0 89 26 182.5t70.5 176.5t106 157.5t130 128.5t146 85.5t150.5 31.5q46 0 86 -13t68 -35.5t44 -54t16 -68.5q0 -90 -87 -187t-235 -175.5t-321 -117.5q-8 -56 -8 -109q0 -69 17.5 -117t51.5 -72.5t83 -24.5q71 0 149.5 57t144.5 157l64 -41q-84 -138 -191 -209 t-230 -71q-134 0 -207.5 83.5t-73.5 235.5zM248 499q190 52 314 161.5t124 226.5q0 83 -69 83q-66 0 -140.5 -68t-135 -175.5t-93.5 -227.5zM531 1280l255 234q71 65 132 65q34 0 54.5 -18.5t20.5 -50.5q0 -56 -100 -103l-270 -127h-92z" />
<glyph unicode="&#xea;" horiz-adv-x="895" d="M28 300q0 89 26 182.5t70.5 176.5t106 157.5t130 128.5t146 85.5t150.5 31.5q46 0 86 -13t68 -35.5t44 -54t16 -68.5q0 -90 -87 -187t-235 -175.5t-321 -117.5q-8 -56 -8 -109q0 -69 17.5 -117t51.5 -72.5t83 -24.5q71 0 149.5 57t144.5 157l64 -41q-84 -138 -191 -209 t-230 -71q-134 0 -207.5 83.5t-73.5 235.5zM248 499q190 52 314 161.5t124 226.5q0 83 -69 83q-66 0 -140.5 -68t-135 -175.5t-93.5 -227.5zM350 1280l303 253h176l166 -253h-89l-198 134l-269 -134h-89z" />
<glyph unicode="&#xeb;" horiz-adv-x="895" d="M28 300q0 89 26 182.5t70.5 176.5t106 157.5t130 128.5t146 85.5t150.5 31.5q46 0 86 -13t68 -35.5t44 -54t16 -68.5q0 -90 -87 -187t-235 -175.5t-321 -117.5q-8 -56 -8 -109q0 -69 17.5 -117t51.5 -72.5t83 -24.5q71 0 149.5 57t144.5 157l64 -41q-84 -138 -191 -209 t-230 -71q-134 0 -207.5 83.5t-73.5 235.5zM248 499q190 52 314 161.5t124 226.5q0 83 -69 83q-66 0 -140.5 -68t-135 -175.5t-93.5 -227.5zM426 1362q0 18 5 32q12 49 53 81.5t90 32.5q40 0 64 -23.5t24 -60.5q0 -29 -13 -56t-33.5 -46t-47.5 -30.5t-54 -11.5 q-40 0 -64 22.5t-24 59.5zM755 1362q0 18 4 32q12 49 53 81.5t90 32.5q27 0 47.5 -11t31 -30t10.5 -43q0 -38 -22 -72t-56.5 -53t-70.5 -19q-26 0 -46 10t-30.5 29t-10.5 43z" />
<glyph unicode="&#xec;" horiz-adv-x="675" d="M53 761q23 45 66 97t95 97.5t111.5 76t107.5 30.5q50 0 74 -30t24 -102q0 -16 -2.5 -34t-9.5 -44.5t-13 -46t-19.5 -58.5t-21.5 -61.5t-28 -75.5t-30 -81l-73 -199q-41 -119 -41 -153q0 -20 10 -32.5t31 -12.5q22 0 48.5 16t50 40t47 53.5t39 53t25.5 41.5l60 -34 q-26 -51 -65 -104t-90 -103.5t-114 -82t-125 -31.5q-58 0 -86 30.5t-28 96.5q0 53 16.5 115t56.5 174l88 252q52 141 52 199q0 45 -28 45q-36 0 -91.5 -61.5t-79.5 -105.5zM272 1494q0 38 29 61.5t67 23.5q60 0 114 -65l192 -234h-92l-234 127q-76 42 -76 87z" />
<glyph unicode="&#xed;" horiz-adv-x="675" d="M53 761q23 45 66 97t95 97.5t111.5 76t107.5 30.5q50 0 74 -30t24 -102q0 -16 -2.5 -34t-9.5 -44.5t-13 -46t-19.5 -58.5t-21.5 -61.5t-28 -75.5t-30 -81l-73 -199q-41 -119 -41 -153q0 -20 10 -32.5t31 -12.5q22 0 48.5 16t50 40t47 53.5t39 53t25.5 41.5l60 -34 q-26 -51 -65 -104t-90 -103.5t-114 -82t-125 -31.5q-58 0 -86 30.5t-28 96.5q0 53 16.5 115t56.5 174l88 252q52 141 52 199q0 45 -28 45q-36 0 -91.5 -61.5t-79.5 -105.5zM342 1280l256 234q71 65 132 65q34 0 54 -18.5t20 -50.5q0 -55 -100 -103l-269 -127h-93z" />
<glyph unicode="&#xee;" horiz-adv-x="675" d="M53 761q23 45 66 97t95 97.5t111.5 76t107.5 30.5q50 0 74 -30t24 -102q0 -16 -2.5 -34t-9.5 -44.5t-13 -46t-19.5 -58.5t-21.5 -61.5t-28 -75.5t-30 -81l-73 -199q-41 -119 -41 -153q0 -20 10 -32.5t31 -12.5q22 0 48.5 16t50 40t47 53.5t39 53t25.5 41.5l60 -34 q-26 -51 -65 -104t-90 -103.5t-114 -82t-125 -31.5q-58 0 -86 30.5t-28 96.5q0 53 16.5 115t56.5 174l88 252q52 141 52 199q0 45 -28 45q-36 0 -91.5 -61.5t-79.5 -105.5zM161 1280l303 253h177l165 -253h-88l-199 134l-269 -134h-89z" />
<glyph unicode="&#xef;" horiz-adv-x="675" d="M53 761q23 45 66 97t95 97.5t111.5 76t107.5 30.5q50 0 74 -30t24 -102q0 -16 -2.5 -34t-9.5 -44.5t-13 -46t-19.5 -58.5t-21.5 -61.5t-28 -75.5t-30 -81l-73 -199q-41 -119 -41 -153q0 -20 10 -32.5t31 -12.5q22 0 48.5 16t50 40t47 53.5t39 53t25.5 41.5l60 -34 q-26 -51 -65 -104t-90 -103.5t-114 -82t-125 -31.5q-58 0 -86 30.5t-28 96.5q0 53 16.5 115t56.5 174l88 252q52 141 52 199q0 45 -28 45q-36 0 -91.5 -61.5t-79.5 -105.5zM238 1362q0 20 4 32q11 49 52.5 81.5t90.5 32.5q40 0 64.5 -23.5t24.5 -60.5q0 -58 -46.5 -101 t-103.5 -43q-39 0 -62.5 22.5t-23.5 59.5zM566 1362q0 20 4 32q12 49 53 81.5t90 32.5q41 0 65.5 -23.5t24.5 -60.5q0 -58 -47 -101t-103 -43q-40 0 -63.5 22.5t-23.5 59.5z" />
<glyph unicode="&#xf0;" horiz-adv-x="1141" d="M41 354q0 121 48 237t125.5 200.5t178.5 136t203 51.5q105 0 171 -43t86 -126l8 4q-1 157 -31 266t-95 190l-292 -148l-38 75l274 140q-67 65 -236 130l52 66q209 -65 308 -133l292 148l40 -75l-264 -134q200 -172 200 -493q0 -119 -25.5 -232t-71 -207.5t-109 -174.5 t-137.5 -135t-158 -85.5t-169 -30.5q-162 0 -261 103.5t-99 269.5zM277 299q0 -112 38 -171t109 -59q70 0 130.5 41t101.5 105t71 142.5t43.5 153.5t13.5 138q0 111 -50 172.5t-143 61.5q-43 0 -82.5 -21t-70.5 -57.5t-57.5 -84.5t-45 -102t-32 -110.5t-20 -109.5t-6.5 -99z " />
<glyph unicode="&#xf1;" horiz-adv-x="1232" d="M34 666q69 202 154.5 299t194.5 97q63 0 89.5 -35.5t26.5 -120.5q0 -102 -33 -178l6 -6q100 175 203.5 257.5t224.5 82.5q86 0 131.5 -41.5t45.5 -118.5q0 -51 -21 -130t-83 -256q-32 -95 -43 -128t-30 -91.5t-25 -87t-6 -46.5q0 -30 20 -30q28 0 80.5 45.5t143.5 145.5 l51 -27q-42 -76 -113 -150t-146 -120t-126 -46q-49 0 -78 42.5t-29 113.5q0 54 24 134t132 384q36 104 48.5 151t12.5 81q0 72 -54 72q-45 0 -106.5 -48.5t-122 -127t-118 -181.5t-96.5 -208l-146 -394h-173l145 450q48 148 73.5 234.5t38 138.5t12.5 77q0 53 -33 53 q-44 0 -111.5 -98t-105.5 -218zM417 1298q16 99 73.5 161.5t132.5 62.5q61 0 169 -47q99 -44 144 -44q33 0 53.5 19.5t32.5 63.5h66q-2 -20 -8 -42t-14.5 -43t-19 -41t-22.5 -35q-53 -71 -131 -71q-27 0 -61 10t-104 39q-121 46 -162 46q-32 0 -50.5 -18t-31.5 -61h-67z" />
<glyph unicode="&#xf2;" horiz-adv-x="1028" d="M47 375q0 84 22 169.5t60.5 161t92.5 141.5t115.5 113t132.5 74.5t142 27.5q143 0 233.5 -104t90.5 -274q0 -97 -31.5 -199.5t-87.5 -191t-126.5 -159.5t-155.5 -112t-167 -41q-67 0 -125 27t-101.5 76.5t-69 125t-25.5 165.5zM253 279q0 -70 17 -116t44 -65t65 -19 q64 0 132 69t119 173t84 230t33 235q0 99 -35 141.5t-100 42.5q-64 0 -130.5 -67.5t-116 -168.5t-81 -224t-31.5 -231zM443 1494q0 38 29 61.5t67 23.5q60 0 114 -65l193 -234h-93l-234 127q-76 43 -76 87z" />
<glyph unicode="&#xf3;" horiz-adv-x="1028" d="M47 375q0 84 22 169.5t60.5 161t92.5 141.5t115.5 113t132.5 74.5t142 27.5q143 0 233.5 -104t90.5 -274q0 -97 -31.5 -199.5t-87.5 -191t-126.5 -159.5t-155.5 -112t-167 -41q-67 0 -125 27t-101.5 76.5t-69 125t-25.5 165.5zM253 279q0 -70 17 -116t44 -65t65 -19 q64 0 132 69t119 173t84 230t33 235q0 99 -35 141.5t-100 42.5q-64 0 -130.5 -67.5t-116 -168.5t-81 -224t-31.5 -231zM514 1280l255 234q71 65 131 65q35 0 55 -18.5t20 -50.5q0 -55 -100 -103l-269 -127h-92z" />
<glyph unicode="&#xf4;" horiz-adv-x="1028" d="M47 375q0 84 22 169.5t60.5 161t92.5 141.5t115.5 113t132.5 74.5t142 27.5q143 0 233.5 -104t90.5 -274q0 -97 -31.5 -199.5t-87.5 -191t-126.5 -159.5t-155.5 -112t-167 -41q-67 0 -125 27t-101.5 76.5t-69 125t-25.5 165.5zM253 279q0 -70 17 -116t44 -65t65 -19 q64 0 132 69t119 173t84 230t33 235q0 99 -35 141.5t-100 42.5q-64 0 -130.5 -67.5t-116 -168.5t-81 -224t-31.5 -231zM387 1280l303 253h177l165 -253h-88l-199 134l-269 -134h-89z" />
<glyph unicode="&#xf5;" horiz-adv-x="1028" d="M47 375q0 84 22 169.5t60.5 161t92.5 141.5t115.5 113t132.5 74.5t142 27.5q143 0 233.5 -104t90.5 -274q0 -97 -31.5 -199.5t-87.5 -191t-126.5 -159.5t-155.5 -112t-167 -41q-67 0 -125 27t-101.5 76.5t-69 125t-25.5 165.5zM253 279q0 -70 17 -116t44 -65t65 -19 q64 0 132 69t119 173t84 230t33 235q0 99 -35 141.5t-100 42.5q-64 0 -130.5 -67.5t-116 -168.5t-81 -224t-31.5 -231zM354 1298q17 99 74.5 161.5t132.5 62.5q61 0 169 -47q57 -25 87 -34.5t56 -9.5q32 0 52.5 19.5t33.5 63.5h65q-2 -20 -7.5 -42t-14 -43t-19 -41 t-22.5 -35q-53 -71 -132 -71q-18 0 -38.5 4.5t-49.5 14.5t-77 30q-121 46 -161 46q-32 0 -50.5 -18t-32.5 -61h-66z" />
<glyph unicode="&#xf6;" horiz-adv-x="1028" d="M47 375q0 84 22 169.5t60.5 161t92.5 141.5t115.5 113t132.5 74.5t142 27.5q143 0 233.5 -104t90.5 -274q0 -97 -31.5 -199.5t-87.5 -191t-126.5 -159.5t-155.5 -112t-167 -41q-67 0 -125 27t-101.5 76.5t-69 125t-25.5 165.5zM253 279q0 -70 17 -116t44 -65t65 -19 q64 0 132 69t119 173t84 230t33 235q0 99 -35 141.5t-100 42.5q-64 0 -130.5 -67.5t-116 -168.5t-81 -224t-31.5 -231zM458 1362q0 20 4 32q11 49 53 81.5t91 32.5q27 0 47 -11t30.5 -30t10.5 -43q0 -58 -46.5 -101t-103.5 -43q-39 0 -62.5 22.5t-23.5 59.5zM786 1362 q0 20 4 32q12 49 53.5 81.5t90.5 32.5q40 0 64 -23.5t24 -60.5q0 -58 -46.5 -101t-102.5 -43q-40 0 -63.5 22.5t-23.5 59.5z" />
<glyph unicode="&#xf7;" horiz-adv-x="1182" d="M141 615v98h921v-98h-921zM478 319q0 54 37 91.5t91 37.5t91.5 -37.5t37.5 -91.5q0 -35 -17 -64.5t-46.5 -46.5t-65.5 -17q-54 0 -91 37t-37 91zM478 1007q0 55 37 92.5t91 37.5q36 0 65.5 -17t46.5 -47t17 -66q0 -26 -10 -50t-27 -41t-41 -27.5t-51 -10.5 q-53 0 -90.5 38t-37.5 91z" />
<glyph unicode="&#xf8;" horiz-adv-x="1028" d="M-84 -120l194 246q-63 105 -63 249q0 84 22 169.5t60.5 161t92.5 141.5t115.5 113t132.5 74.5t142 27.5q108 0 189 -64l129 166h136l-193 -244q63 -102 63 -236q0 -97 -31.5 -199.5t-87.5 -191t-126.5 -159.5t-155.5 -112t-167 -41q-108 0 -188 64l-131 -165h-133z M253 306l473 598q-34 66 -114 66q-62 0 -126.5 -63.5t-113.5 -160t-82 -215t-37 -225.5zM272 159q31 -80 107 -80q50 0 103 42t98 113.5t82 159t59.5 184t25.5 183.5z" />
<glyph unicode="&#xf9;" horiz-adv-x="1165" d="M41 745q40 78 104 150t139 119.5t136 47.5q48 0 73.5 -30t25.5 -84q0 -63 -32 -159.5t-106 -279.5q-47 -118 -68.5 -187t-21.5 -125q0 -75 41 -75q31 0 83 45t108 116t111.5 169.5t91.5 196.5l145 393h183l-146 -451q-66 -206 -90 -291.5t-24 -120.5q0 -51 35 -51 q40 0 103.5 70t101.5 158l59 -30q-35 -87 -93 -165.5t-130.5 -129t-137.5 -50.5q-18 0 -32 3.5t-24.5 10.5t-19 18t-14 24.5t-9 31t-5 36.5t-1.5 43q0 73 14 147l-5 5q-51 -90 -102 -154t-99.5 -99.5t-92 -50.5t-89.5 -15q-86 0 -125.5 47.5t-39.5 128.5q0 75 27 166t72 204 q78 195 103 263t25 97q0 21 -18 21q-25 0 -73.5 -44.5t-131.5 -145.5zM484 1494q0 38 29 61.5t67 23.5q60 0 114 -65l193 -234h-93l-233 127q-77 43 -77 87z" />
<glyph unicode="&#xfa;" horiz-adv-x="1165" d="M41 745q40 78 104 150t139 119.5t136 47.5q48 0 73.5 -30t25.5 -84q0 -63 -32 -159.5t-106 -279.5q-47 -118 -68.5 -187t-21.5 -125q0 -75 41 -75q31 0 83 45t108 116t111.5 169.5t91.5 196.5l145 393h183l-146 -451q-66 -206 -90 -291.5t-24 -120.5q0 -51 35 -51 q40 0 103.5 70t101.5 158l59 -30q-35 -87 -93 -165.5t-130.5 -129t-137.5 -50.5q-18 0 -32 3.5t-24.5 10.5t-19 18t-14 24.5t-9 31t-5 36.5t-1.5 43q0 73 14 147l-5 5q-51 -90 -102 -154t-99.5 -99.5t-92 -50.5t-89.5 -15q-86 0 -125.5 47.5t-39.5 128.5q0 75 27 166t72 204 q78 195 103 263t25 97q0 21 -18 21q-25 0 -73.5 -44.5t-131.5 -145.5zM555 1280l255 234q71 65 132 65q34 0 54.5 -18.5t20.5 -50.5q0 -55 -101 -103l-269 -127h-92z" />
<glyph unicode="&#xfb;" horiz-adv-x="1165" d="M41 745q40 78 104 150t139 119.5t136 47.5q48 0 73.5 -30t25.5 -84q0 -63 -32 -159.5t-106 -279.5q-47 -118 -68.5 -187t-21.5 -125q0 -75 41 -75q31 0 83 45t108 116t111.5 169.5t91.5 196.5l145 393h183l-146 -451q-66 -206 -90 -291.5t-24 -120.5q0 -51 35 -51 q40 0 103.5 70t101.5 158l59 -30q-35 -87 -93 -165.5t-130.5 -129t-137.5 -50.5q-18 0 -32 3.5t-24.5 10.5t-19 18t-14 24.5t-9 31t-5 36.5t-1.5 43q0 73 14 147l-5 5q-51 -90 -102 -154t-99.5 -99.5t-92 -50.5t-89.5 -15q-86 0 -125.5 47.5t-39.5 128.5q0 75 27 166t72 204 q78 195 103 263t25 97q0 21 -18 21q-25 0 -73.5 -44.5t-131.5 -145.5zM373 1280l304 253h176l166 -253h-89l-198 134l-270 -134h-89z" />
<glyph unicode="&#xfc;" horiz-adv-x="1165" d="M41 745q40 78 104 150t139 119.5t136 47.5q48 0 73.5 -30t25.5 -84q0 -63 -32 -159.5t-106 -279.5q-47 -118 -68.5 -187t-21.5 -125q0 -75 41 -75q31 0 83 45t108 116t111.5 169.5t91.5 196.5l145 393h183l-146 -451q-66 -206 -90 -291.5t-24 -120.5q0 -51 35 -51 q40 0 103.5 70t101.5 158l59 -30q-35 -87 -93 -165.5t-130.5 -129t-137.5 -50.5q-18 0 -32 3.5t-24.5 10.5t-19 18t-14 24.5t-9 31t-5 36.5t-1.5 43q0 73 14 147l-5 5q-51 -90 -102 -154t-99.5 -99.5t-92 -50.5t-89.5 -15q-86 0 -125.5 47.5t-39.5 128.5q0 75 27 166t72 204 q78 195 103 263t25 97q0 21 -18 21q-25 0 -73.5 -44.5t-131.5 -145.5zM450 1362q0 20 4 32q12 49 53.5 81.5t90.5 32.5q40 0 64 -23.5t24 -60.5q0 -58 -46.5 -101t-102.5 -43q-26 0 -46 10t-30.5 29t-10.5 43zM779 1362q0 20 3 32q12 49 53.5 81.5t90.5 32.5q27 0 47.5 -11 t31 -30t10.5 -43q0 -58 -47 -101t-103 -43q-26 0 -45.5 10t-30 29t-10.5 43z" />
<glyph unicode="&#xfd;" horiz-adv-x="1011" d="M-218 -356q0 49 28 79.5t72 30.5q25 0 43 -11t27.5 -27.5t18 -35.5t15.5 -35.5t19.5 -27.5t30.5 -11q47 0 128.5 68t155.5 167t102 181l-105 552q-30 155 -62 220t-70 65q-36 0 -67.5 -56.5t-62.5 -177.5l-72 20q41 183 122.5 300t168.5 117q37 0 63.5 -28.5t54.5 -101.5 q49 -128 107 -403l67 -317h8q85 107 150.5 245.5t65.5 248.5q0 22 -3.5 67t-6.5 89t-3 62q0 66 33 102t77 36q48 0 73 -41t25 -103q0 -104 -73 -288.5t-190.5 -388t-247.5 -371.5q-294 -381 -513 -381q-80 0 -129.5 44.5t-49.5 110.5zM444 1280l256 234q71 65 131 65 q35 0 55 -18.5t20 -50.5q0 -56 -100 -103l-269 -127h-93z" />
<glyph unicode="&#xfe;" horiz-adv-x="1060" d="M-300 -492l11 79q83 0 121 19.5t52 70.5l506 1681q29 101 29 126q0 69 -149 69l15 59l377 18l-249 -757l6 -4q57 90 142.5 140.5t181.5 50.5q118 0 184 -75t66 -205q0 -91 -28 -188.5t-75 -184.5t-113 -166t-139 -136t-155.5 -90.5t-159.5 -33.5q-93 0 -144 68l-6 -2 l-73 -285q-16 -63 -16 -85q0 -48 41 -68t143 -22l-13 -79h-555zM253 242q0 -161 101 -161q53 0 116 45.5t119.5 122t104 168.5t76 193t28.5 186q0 67 -31 113t-77 46q-51 0 -112.5 -45.5t-117.5 -122.5t-103 -168.5t-75.5 -192t-28.5 -184.5z" />
<glyph unicode="&#xff;" horiz-adv-x="1011" d="M-218 -356q0 49 28 79.5t72 30.5q25 0 43 -11t27.5 -27.5t18 -35.5t15.5 -35.5t19.5 -27.5t30.5 -11q47 0 128.5 68t155.5 167t102 181l-105 552q-30 155 -62 220t-70 65q-36 0 -67.5 -56.5t-62.5 -177.5l-72 20q41 183 122.5 300t168.5 117q37 0 63.5 -28.5t54.5 -101.5 q49 -128 107 -403l67 -317h8q85 107 150.5 245.5t65.5 248.5q0 22 -3.5 67t-6.5 89t-3 62q0 66 33 102t77 36q48 0 73 -41t25 -103q0 -104 -73 -288.5t-190.5 -388t-247.5 -371.5q-294 -381 -513 -381q-80 0 -129.5 44.5t-49.5 110.5zM346 1362q0 18 4 32q12 49 53 81.5 t90 32.5q27 0 47.5 -11t31 -30t10.5 -43q0 -58 -46.5 -101t-102.5 -43q-39 0 -63 22.5t-24 59.5zM674 1362q0 18 5 32q11 49 52.5 81.5t90.5 32.5q27 0 47 -11t30.5 -30t10.5 -43q0 -58 -46.5 -101t-102.5 -43q-39 0 -63 22.5t-24 59.5z" />
<glyph unicode="&#x152;" horiz-adv-x="2276" d="M133 588q0 122 41 242.5t111.5 221.5t168 187.5t209 146.5t237.5 94t250 34h1060v-398h-75q-18 67 -37 114t-44 83t-53 57.5t-68 35t-86 18.5t-109 5h-159q-8 0 -15 -2.5t-12 -7t-7.5 -10.5t-2.5 -13l-135 -557q65 0 108 3t82.5 12t65 24t49.5 41.5t42 61t37 85.5h75 l-118 -580h-79q4 82 4 107q0 43 -7 70t-23.5 47t-50 30.5t-81 15.5t-121.5 5l-108 -452q-10 -42 -10 -87q1 -77 67 -107.5t220 -30.5q104 0 180 18.5t134 60.5t100 101.5t83 150.5h92l-152 -415h-1208q-147 0 -270 44.5t-207 122.5t-131 186.5t-47 234.5zM377 517 q0 -204 116.5 -319t322.5 -115q32 0 56 1t46 4t37.5 9.5t29.5 14t24.5 21t19 28t16.5 36.5t14.5 45.5t13.5 56.5l219 916q16 91 16 110q0 64 -40 87t-137 23q-261 0 -456 -186.5t-268 -509.5q-30 -128 -30 -222z" />
<glyph unicode="&#x153;" horiz-adv-x="1557" d="M47 375q0 84 22 169.5t60.5 161t92.5 141.5t115.5 113t132.5 74.5t142 27.5q69 0 128.5 -27t103 -77t66.5 -119q92 103 198.5 163t208.5 60q47 0 86.5 -13t67.5 -35.5t44 -54t16 -68.5q0 -90 -86.5 -187t-235 -175.5t-320.5 -117.5q-8 -50 -8 -109q0 -104 39 -159 t112 -55q72 0 150 57t145 157l63 -41q-56 -92 -122.5 -154.5t-141.5 -94t-156 -31.5q-98 0 -164.5 44t-96.5 129q-75 -81 -163.5 -127t-177.5 -46q-67 0 -125 27t-101.5 76.5t-69 125t-25.5 165.5zM253 279q0 -70 17 -116t44 -65t65 -19q64 0 132 69t119 173t84 230t33 235 q0 99 -35 141.5t-100 42.5q-64 0 -130.5 -67.5t-116 -168.5t-81 -224t-31.5 -231zM908 499q190 52 314.5 161.5t124.5 226.5q0 83 -69 83q-66 0 -139 -65t-132.5 -168.5t-94.5 -220.5z" />
<glyph unicode="&#x178;" horiz-adv-x="1354" d="M177 1435l22 79h552l-21 -79q-50 0 -80.5 -6.5t-45.5 -21.5t-15 -41q0 -31 17 -70l210 -508l274 400q27 40 37 55t23 38t16.5 37.5t3.5 32.5q0 40 -38.5 62t-107.5 22l22 79h485l-21 -79q-33 0 -56 -4.5t-42 -13t-39 -29.5t-38 -44t-50 -68l-420 -592l-92 -354 q-24 -88 -24 -137q0 -44 21 -69t63 -35t115 -10l-24 -79h-667l22 79q67 0 109.5 8.5t77 34.5t57 70.5t41.5 118.5l91 349l-236 567q-18 42 -32 71t-28 52.5t-28.5 38t-29 24.5t-34.5 14.5t-40 6t-50 1.5zM694 1760q0 20 4 29q7 27 26 49.5t45 35.5t53 13q35 0 56.5 -20.5 t21.5 -52.5q0 -50 -41 -87.5t-90 -37.5q-34 0 -54.5 19.5t-20.5 51.5zM1052 1760q0 20 4 29q10 41 46.5 69.5t79.5 28.5q33 0 55 -20.5t22 -52.5q0 -33 -20 -62.5t-50 -46t-60 -16.5q-35 0 -56 19.5t-21 51.5z" />
<glyph unicode="&#x2c6;" horiz-adv-x="722" d="M4 1280l302 253h178l165 -253h-88l-199 134l-270 -134h-88z" />
<glyph unicode="&#x2dc;" horiz-adv-x="748" d="M39 1298q17 99 74.5 161.5t132.5 62.5q61 0 169 -47q98 -44 144 -44q32 0 52.5 19.5t33.5 63.5h64q-4 -40 -21.5 -85.5t-40.5 -75.5q-53 -71 -131 -71q-27 0 -61.5 10t-104.5 39q-121 46 -161 46q-32 0 -50.5 -18t-31.5 -61h-68z" />
<glyph unicode="&#x2000;" horiz-adv-x="943" />
<glyph unicode="&#x2001;" horiz-adv-x="1887" />
<glyph unicode="&#x2002;" horiz-adv-x="943" />
<glyph unicode="&#x2003;" horiz-adv-x="1887" />
<glyph unicode="&#x2004;" horiz-adv-x="629" />
<glyph unicode="&#x2005;" horiz-adv-x="471" />
<glyph unicode="&#x2006;" horiz-adv-x="314" />
<glyph unicode="&#x2007;" horiz-adv-x="314" />
<glyph unicode="&#x2008;" horiz-adv-x="235" />
<glyph unicode="&#x2009;" horiz-adv-x="377" />
<glyph unicode="&#x200a;" horiz-adv-x="104" />
<glyph unicode="&#x2010;" horiz-adv-x="913" d="M118 488l45 163h608l-45 -163h-608z" />
<glyph unicode="&#x2011;" horiz-adv-x="913" d="M118 488l45 163h608l-45 -163h-608z" />
<glyph unicode="&#x2012;" horiz-adv-x="913" d="M118 488l45 163h608l-45 -163h-608z" />
<glyph unicode="&#x2013;" horiz-adv-x="1426" d="M118 488l45 163h1121l-46 -163h-1120z" />
<glyph unicode="&#x2014;" horiz-adv-x="2189" d="M118 488l45 163h1884l-45 -163h-1884z" />
<glyph unicode="&#x2018;" horiz-adv-x="493" d="M268 1203q0 124 77 219t263 210l31 -53q-108 -67 -163 -129.5t-77 -138.5q28 16 63 16q24 0 42 -9.5t27 -27t9 -39.5q0 -64 -51.5 -108t-118.5 -44q-102 0 -102 104z" />
<glyph unicode="&#x2019;" horiz-adv-x="488" d="M253 1152q55 34 95.5 66t69.5 64.5t47 66t28 71.5q-29 -16 -62 -16q-38 0 -58.5 20.5t-20.5 55.5q0 64 51.5 108t119.5 44q50 0 76 -27t26 -78q0 -125 -77 -219.5t-263 -208.5z" />
<glyph unicode="&#x201a;" horiz-adv-x="510" d="M-114 -272q108 67 163.5 129.5t76.5 138.5q-28 -15 -63 -15q-37 0 -57.5 20t-20.5 56q0 63 51.5 107t119.5 44q50 0 75.5 -26.5t25.5 -76.5q0 -126 -77 -221t-263 -208z" />
<glyph unicode="&#x201c;" horiz-adv-x="870" d="M268 1203q0 124 77 219t263 210l31 -53q-108 -67 -163 -129.5t-77 -138.5q28 16 63 16q24 0 42 -9.5t27 -27t9 -39.5q0 -64 -51.5 -108t-118.5 -44q-102 0 -102 104zM645 1203q0 124 77 219t263 210l32 -53q-108 -67 -163.5 -129.5t-76.5 -138.5q27 16 62 16 q36 0 57.5 -21t21.5 -55q0 -64 -51.5 -108t-119.5 -44q-102 0 -102 104z" />
<glyph unicode="&#x201d;" horiz-adv-x="866" d="M253 1152q55 34 95.5 66t69.5 64.5t47 66t28 71.5q-29 -16 -62 -16q-38 0 -58.5 20.5t-20.5 55.5q0 64 51.5 108t119.5 44q50 0 76 -27t26 -78q0 -125 -77 -219.5t-263 -208.5zM631 1152q108 67 163.5 129.5t76.5 138.5q-30 -16 -63 -16q-37 0 -57.5 20.5t-20.5 55.5 q0 64 51.5 108t118.5 44q51 0 76.5 -27t25.5 -78q0 -125 -77 -219.5t-263 -208.5z" />
<glyph unicode="&#x201e;" horiz-adv-x="888" d="M-114 -272q108 67 163.5 129.5t76.5 138.5q-28 -15 -63 -15q-37 0 -57.5 20t-20.5 56q0 63 51.5 107t119.5 44q50 0 75.5 -26.5t25.5 -76.5q0 -126 -77 -221t-263 -208zM263 -272q108 67 163.5 129.5t76.5 138.5q-28 -15 -62 -15q-38 0 -58.5 20t-20.5 56q0 63 51.5 107 t119.5 44q33 0 56 -12t35 -35t12 -56q0 -126 -77.5 -221t-263.5 -208z" />
<glyph unicode="&#x2022;" horiz-adv-x="953" d="M195 726q0 124 90 211t216 87q80 0 149 -39t110 -108.5t41 -150.5q0 -125 -90.5 -213.5t-218.5 -88.5q-59 0 -113.5 24t-94.5 64t-64.5 96.5t-24.5 117.5z" />
<glyph unicode="&#x2026;" horiz-adv-x="1418" d="M-2 114q0 29 10.5 55.5t28.5 45t43 29.5t53 11q60 0 100.5 -41t40.5 -98t-41 -96t-100 -39q-56 0 -95.5 37.5t-39.5 95.5zM450 114q0 39 18 71.5t49 51t69 18.5q59 0 99.5 -41t40.5 -98t-41 -96t-99 -39q-56 0 -96 37.5t-40 95.5zM902 114q0 39 18 71.5t49 51t69 18.5 q59 0 99.5 -41t40.5 -98t-41 -96t-99 -39q-56 0 -96 37.5t-40 95.5z" />
<glyph unicode="&#x202f;" horiz-adv-x="377" />
<glyph unicode="&#x2039;" horiz-adv-x="602" d="M57 516l419 312l27 -42l-267 -270l120 -272l-47 -40z" />
<glyph unicode="&#x203a;" horiz-adv-x="602" d="M47 244l266 272l-122 270l51 42l250 -312l-417 -312z" />
<glyph unicode="&#x205f;" horiz-adv-x="471" />
<glyph unicode="&#x20ac;" horiz-adv-x="1399" d="M84 589l28 103h158q14 78 49 165h-163l23 102h177q117 263 316 418.5t420 155.5q98 0 173 -33.5t116 -94.5t41 -141q0 -58 -23.5 -102.5t-66 -68.5t-97.5 -24q-22 0 -37 4.5t-25.5 13.5t-18.5 24q47 13 77.5 60.5t30.5 108.5q0 73 -46.5 113t-132.5 40q-147 0 -269 -120 t-212 -354h454l-26 -102h-460q-31 -86 -47 -165h462l-28 -103h-458q-31 -120 -31 -210q0 -140 67 -217.5t189 -77.5q82 0 154 32.5t116 89t44 122.5q0 76 -51 105q62 47 118 47q34 0 57.5 -16t36.5 -47.5t13 -76.5q0 -95 -75 -178.5t-196.5 -132t-256.5 -48.5 q-209 0 -324.5 126.5t-115.5 358.5q0 56 8 123h-168z" />
<glyph unicode="&#x2122;" horiz-adv-x="1846" d="M350 1364v150h594l7 -150h-41q-4 42 -16 65t-35.5 32.5t-64.5 9.5q-55 0 -71.5 -5.5t-16.5 -20.5v-401q0 -54 19 -74t83 -22v-40h-316v40q63 2 82 22t19 74v401q0 15 -14.5 20.5t-62.5 5.5q-25 0 -40.5 -1.5t-33 -7.5t-27.5 -17t-17 -31.5t-8 -49.5h-40zM991 908v40 q56 1 71 21t15 93v298q0 68 -14 90t-65 25v39h209l185 -445h8l193 445h196v-39q-26 -1 -41 -6t-23.5 -19.5t-11 -35.5t-2.5 -59v-287q0 -42 2.5 -63.5t12.5 -35t25.5 -17.5t45.5 -4v-40h-266v40q58 1 73 20.5t15 93.5v354h-9l-230 -516h-16l-222 516h-7v-348 q0 -42 2.5 -63.5t12.5 -35t25.5 -17.5t45.5 -4v-40h-230z" />
<glyph unicode="&#x25fc;" horiz-adv-x="1060" d="M0 0v1062h1062v-1062h-1062z" />
</font>
</defs>
</svg>
